<?xml version="1.0" encoding="iso-8859-1"?>
<!-- Uploaded to: SVG Repo, www.svgrepo.com, Generator: SVG Repo Mixer Tools -->
<svg fill="#000000" height="800px" width="800px" version="1.1" id="Layer_1" xmlns="http://www.w3.org/2000/svg" xmlns:xlink="http://www.w3.org/1999/xlink" 
	 viewBox="0 0 488.025 488.025" xml:space="preserve">
<g transform="translate(0 -540.36)">
	<g>
		<g>
			<path d="M71.325,831.44c1.6,0,3.2-0.4,4.7-1.2l108.5-58.1l79.3,45.2c1.6,0.9,3.3,1.3,4.9,1.3c3.5,0,6.9-1.8,8.7-5.1
				c2.7-4.8,1.1-10.9-3.7-13.6l-68.3-38.9l216.2-115.8c4.2-2.4,6.2-7.4,4.7-12.1l-24.7-74.2c-1.7-5.2-7.4-8.1-12.6-6.3
				c-5.2,1.7-8.1,7.4-6.3,12.6l22,66.3l-205.4,110l29.4-76.9c2-5.2-0.6-10.9-5.8-12.9c-5.2-2-10.9,0.6-12.9,5.8l-37.5,98
				c-0.1,0.1-0.1,0.3-0.1,0.4l-105.8,56.7c-4.9,2.6-6.7,8.7-4.1,13.5C64.325,829.54,67.825,831.44,71.325,831.44z"/>
			<path d="M478.025,935.34h-406.8c-2.7,0-5.2,1-7.1,2.9l-61.2,61.4c-3.9,3.9-3.9,10.2,0,14.1c2,1.9,4.5,2.9,7.1,2.9s5.1-1,7.1-2.9
				l58.3-58.4h402.6c5.5,0,10-4.5,10-10S483.525,935.34,478.025,935.34z"/>
			<polygon points="10.025,1016.64 10.025,1016.64 10.025,1016.64 			"/>
		</g>
	</g>
</g>
</svg>