<svg width="23" height="24" viewBox="0 0 23 24" fill="none" xmlns="http://www.w3.org/2000/svg">
<path d="M22.2512 20.1637C17.8411 24.4866 12.0587 24.0167 8.57467 20.5939L2.73938 14.8644C-0.53858 11.6457 -1.42729 5.95871 3.17748 1.43362C4.14154 0.48697 5.82325 0.48697 6.78856 1.43362L8.63589 3.24879C9.63081 4.22633 9.63081 5.81591 8.63589 6.79348L7.13994 8.26241C6.15451 9.22772 6.12959 10.8185 7.13994 11.8071L11.6871 16.2728C12.6827 17.2503 14.3015 17.2503 15.297 16.2728L16.793 14.8039C17.7885 13.8263 19.4073 13.8263 20.4028 14.8039L22.2514 16.619C23.2498 17.5995 23.2492 19.1844 22.2514 20.1637L22.2512 20.1637Z" fill="#646060"/>
</svg>
