<svg width="64" height="64" viewBox="0 0 64 64" fill="none" xmlns="http://www.w3.org/2000/svg">
<path d="M29.5 63.168C45.5071 63.168 58.5 50.4375 58.5 34.7134C58.5 18.9893 45.5071 6.25879 29.5 6.25879C13.4929 6.25879 0.5 18.9893 0.5 34.7134C0.5 50.4375 13.4929 63.168 29.5 63.168Z" fill="white" stroke="#BDBDBD"/>
<path d="M44.3693 42.6052C44.2397 42.4432 44.1125 42.2811 43.9876 42.1248C42.2703 39.9691 41.2313 38.6681 41.2313 32.5658C41.2313 29.4064 40.5031 26.8141 39.0675 24.8699C38.0091 23.4336 36.5782 22.3441 34.6923 21.5388C34.6681 21.5248 34.6464 21.5064 34.6283 21.4846C33.95 19.1272 32.0937 17.5483 30.0002 17.5483C27.9066 17.5483 26.0512 19.1272 25.3728 21.4821C25.3547 21.5032 25.3334 21.521 25.3096 21.5348C20.9086 23.415 18.7698 27.0223 18.7698 32.5633C18.7698 38.6681 17.7324 39.9691 16.0136 42.1224C15.8887 42.2787 15.7614 42.4375 15.6318 42.6027C15.2971 43.0217 15.0851 43.5313 15.0207 44.0714C14.9564 44.6115 15.0425 45.1594 15.2689 45.6503C15.7505 46.7034 16.777 47.3572 17.9486 47.3572H42.0603C43.2265 47.3572 44.246 46.7042 44.7292 45.656C44.9565 45.165 45.0434 44.6166 44.9797 44.0759C44.9159 43.5352 44.7041 43.0248 44.3693 42.6052ZM30.0002 53.8403C31.1282 53.8393 32.2349 53.5216 33.2029 52.9207C34.171 52.3198 34.9643 51.4583 35.4987 50.4274C35.5239 50.378 35.5363 50.3227 35.5348 50.2668C35.5333 50.2109 35.5179 50.1564 35.49 50.1086C35.4622 50.0607 35.423 50.0211 35.3761 49.9937C35.3292 49.9662 35.2762 49.9518 35.2223 49.9519H24.7796C24.7257 49.9517 24.6726 49.966 24.6256 49.9934C24.5786 50.0208 24.5392 50.0603 24.5113 50.1082C24.4834 50.1561 24.4679 50.2107 24.4664 50.2666C24.4648 50.3225 24.4773 50.3779 24.5025 50.4274C25.0368 51.4582 25.83 52.3196 26.7979 52.9205C27.7658 53.5214 28.8723 53.8392 30.0002 53.8403Z" fill="#0694A2"/>
<ellipse cx="51.5" cy="12.6439" rx="12.5" ry="11.7704" fill="#0694A2"/>
<path d="M54.9375 7.33105C54.9583 7.56543 54.9766 7.80501 54.9922 8.0498C55.013 8.2946 55.0234 8.53418 55.0234 8.76855C55.0234 9.50293 54.9271 10.154 54.7344 10.7217C54.5469 11.2842 54.2318 11.7243 53.7891 12.042C53.3464 12.3597 52.7422 12.5186 51.9766 12.5186C51.8203 12.5186 51.625 12.5107 51.3906 12.4951C51.1562 12.4795 50.9297 12.4456 50.7109 12.3936C50.763 12.8571 50.8021 13.3102 50.8281 13.7529C50.8542 14.1904 50.8724 14.6201 50.8828 15.042C50.8932 15.4587 50.8984 15.8649 50.8984 16.2607V17.8545H48.9141V16.2373C48.9141 15.0133 48.8672 13.904 48.7734 12.9092C48.6849 11.9144 48.5365 11.0029 48.3281 10.1748C48.1198 9.34147 47.8385 8.56022 47.4844 7.83105L49.3438 7.1748C49.4896 7.53939 49.6146 7.86491 49.7188 8.15137C49.8281 8.43262 49.9557 8.75293 50.1016 9.1123C50.2318 9.43001 50.3646 9.68522 50.5 9.87793C50.6406 10.0654 50.8203 10.2008 51.0391 10.2842C51.2578 10.3675 51.5495 10.4092 51.9141 10.4092C52.2161 10.4092 52.4609 10.3493 52.6484 10.2295C52.8411 10.1045 52.9818 9.93783 53.0703 9.72949C53.1589 9.52116 53.2031 9.28939 53.2031 9.03418C53.2031 8.76335 53.1849 8.50293 53.1484 8.25293C53.1172 7.99772 53.0833 7.75033 53.0469 7.51074L54.9375 7.33105Z" fill="white"/>
</svg>
