<svg width="59" height="58" viewBox="0 0 59 58" fill="none" xmlns="http://www.w3.org/2000/svg">
<path d="M29.5 57.4092C45.5071 57.4092 58.5 44.6787 58.5 28.9546C58.5 13.2305 45.5071 0.5 29.5 0.5C13.4929 0.5 0.5 13.2305 0.5 28.9546C0.5 44.6787 13.4929 57.4092 29.5 57.4092Z" fill="white" stroke="#BDBDBD"/>
<path d="M44.3693 36.6052C44.2397 36.4432 44.1125 36.2811 43.9876 36.1248C42.2703 33.9691 41.2313 32.6681 41.2313 26.5658C41.2313 23.4064 40.5031 20.8141 39.0675 18.8699C38.0091 17.4336 36.5782 16.3441 34.6923 15.5388C34.6681 15.5248 34.6464 15.5064 34.6283 15.4846C33.95 13.1272 32.0937 11.5483 30.0002 11.5483C27.9066 11.5483 26.0512 13.1272 25.3728 15.4821C25.3547 15.5032 25.3334 15.521 25.3096 15.5348C20.9086 17.415 18.7698 21.0223 18.7698 26.5633C18.7698 32.6681 17.7324 33.9691 16.0136 36.1224C15.8887 36.2787 15.7614 36.4375 15.6318 36.6027C15.2971 37.0217 15.0851 37.5313 15.0207 38.0714C14.9564 38.6115 15.0425 39.1594 15.2689 39.6503C15.7505 40.7034 16.777 41.3572 17.9486 41.3572H42.0603C43.2265 41.3572 44.246 40.7042 44.7292 39.656C44.9565 39.165 45.0434 38.6166 44.9797 38.0759C44.9159 37.5352 44.7041 37.0248 44.3693 36.6052ZM30.0002 47.8403C31.1282 47.8393 32.2349 47.5216 33.2029 46.9207C34.171 46.3198 34.9643 45.4583 35.4987 44.4274C35.5239 44.378 35.5363 44.3227 35.5348 44.2668C35.5333 44.2109 35.5179 44.1564 35.49 44.1086C35.4622 44.0607 35.423 44.0211 35.3761 43.9937C35.3292 43.9662 35.2762 43.9518 35.2223 43.9519H24.7796C24.7257 43.9517 24.6726 43.966 24.6256 43.9934C24.5786 44.0208 24.5392 44.0603 24.5113 44.1082C24.4834 44.1561 24.4679 44.2107 24.4664 44.2666C24.4648 44.3225 24.4773 44.3779 24.5025 44.4274C25.0368 45.4582 25.83 46.3196 26.7979 46.9205C27.7658 47.5214 28.8723 47.8392 30.0002 47.8403Z" fill="#0694A2"/>
</svg>
