<svg width="505" height="479" viewBox="0 0 505 479" fill="none" xmlns="http://www.w3.org/2000/svg">
<circle cx="290.5" cy="264.5" r="214.5" fill="#0694A2"/>
<path d="M419.33 312.182C419.33 312.182 448.59 305.182 449.56 303.972L425.49 241.972C423.155 235.603 419.422 229.838 414.564 225.103C409.706 220.368 403.847 216.783 397.42 214.612C388.292 211.434 378.661 209.946 369 210.222L328.37 208.072C317.182 208.764 306.262 211.785 296.31 216.942C282.651 224.064 271.981 235.826 266.22 250.112L248 295.622L294 305.232L295.75 354.132L288.82 421.602H415.68L414.8 314.662L419.33 312.182Z" fill="#0694A2"/>
<g opacity="0.3">
<path d="M444.55 295.873C444.55 296.013 437 298.493 427.55 301.403C418.1 304.313 410.48 306.573 410.44 306.403C410.4 306.233 417.98 303.783 427.44 300.863C436.9 297.943 444.51 295.733 444.55 295.873Z" fill="white"/>
</g>
<path d="M311.78 252.292C311.486 251.962 311.224 251.604 311 251.222C310.54 250.522 309.83 249.522 308.91 248.322C307.834 246.927 306.682 245.592 305.46 244.322C303.965 242.76 302.375 241.291 300.7 239.922C299.004 238.573 297.231 237.324 295.39 236.182C293.878 235.265 292.319 234.428 290.72 233.672C289.36 233.022 288.23 232.542 287.44 232.232C287.017 232.1 286.611 231.919 286.23 231.692C286.666 231.772 287.094 231.889 287.51 232.042C288.651 232.416 289.772 232.846 290.87 233.332C292.506 234.053 294.098 234.868 295.64 235.772C297.511 236.903 299.308 238.152 301.02 239.512C302.715 240.897 304.316 242.393 305.81 243.992C307.022 245.303 308.154 246.686 309.2 248.132C309.923 249.094 310.591 250.095 311.2 251.132C311.435 251.497 311.629 251.886 311.78 252.292Z" fill="#263238"/>
<path d="M305.79 267.093C305.93 267.093 304.51 282.033 302.62 300.433C300.73 318.833 299.08 333.743 298.94 333.723C298.8 333.703 300.21 318.783 302.11 300.383C304.01 281.983 305.68 267.073 305.79 267.093Z" fill="#263238"/>
<path d="M405.68 239.472C405.409 238.485 405.192 237.483 405.03 236.472C404.522 234.044 403.854 231.652 403.03 229.312C402.184 226.974 401.182 224.696 400.03 222.492C399.508 221.602 399.034 220.684 398.61 219.742C398.61 219.742 398.83 219.952 399.14 220.392C399.45 220.832 399.87 221.492 400.36 222.312C401.613 224.488 402.67 226.77 403.52 229.132C404.368 231.493 405.001 233.927 405.41 236.402C405.56 237.352 405.65 238.122 405.69 238.662C405.724 238.931 405.721 239.204 405.68 239.472Z" fill="#263238"/>
<path d="M408.24 291.623C408.119 291.14 408.039 290.649 408 290.153C407.87 289.213 407.72 287.833 407.55 286.153C407.22 282.753 406.87 278.033 406.69 272.823C406.51 267.613 406.52 262.873 406.61 259.453C406.66 257.743 406.71 256.363 406.77 255.453C406.77 254.956 406.82 254.46 406.92 253.973C406.978 254.464 406.998 254.959 406.98 255.453V259.473C406.98 262.883 407.03 267.603 407.21 272.813C407.39 278.023 407.68 282.723 407.92 286.133C408.03 287.763 408.12 289.133 408.2 290.133C408.262 290.627 408.275 291.126 408.24 291.623Z" fill="#263238"/>
<path d="M346.8 282.893C336.134 283.513 325.436 283.313 314.8 282.293V286.473H346.8V282.893Z" fill="white"/>
<g opacity="0.3">
<path d="M378.68 213.753C378.748 213.957 378.792 214.169 378.81 214.383L379.09 216.223C379.29 217.843 379.57 220.223 379.8 223.223C380.28 229.223 380.7 237.773 380.8 247.863V248.243L380.45 248.083C374.07 244.973 366.92 241.593 359.45 237.873L323.08 219.673L312.08 214.103L309.08 212.573L308.32 212.153C308.227 212.115 308.14 212.064 308.06 212.003C308.158 212.026 308.252 212.063 308.34 212.113L309.13 212.473L312.13 213.923L323.19 219.343L359.68 237.403C367.12 241.123 374.26 244.513 380.68 247.643L380.34 247.853C380.23 237.783 379.88 229.243 379.48 223.233C379.3 220.233 379.06 217.863 378.91 216.233C378.82 215.453 378.75 214.833 378.7 214.383C378.683 214.173 378.676 213.963 378.68 213.753Z" fill="white"/>
</g>
<g opacity="0.3">
<path d="M302.23 300.132C302.05 300.129 301.871 300.099 301.7 300.042L300.21 299.692L294.74 298.302C290.12 297.112 283.74 295.502 276.68 293.792C269.62 292.082 263.2 290.602 258.55 289.542L253.05 288.282L251.56 287.922C251.385 287.887 251.214 287.834 251.05 287.762C251.226 287.738 251.404 287.738 251.58 287.762L253.09 288.032C254.4 288.272 256.29 288.652 258.63 289.132C263.3 290.132 269.73 291.522 276.8 293.232C283.87 294.942 290.24 296.622 294.8 297.892C297.1 298.532 298.96 299.062 300.23 299.442L301.7 299.892C301.885 299.953 302.063 300.033 302.23 300.132Z" fill="white"/>
</g>
<path d="M373.05 206.182C373.05 206.032 375.8 207.472 378.45 211.402C381.1 215.332 383.51 221.402 384.88 228.402C385.51 231.703 385.901 235.045 386.05 238.402C386.05 239.942 386.12 241.402 386.05 242.772C385.98 244.142 385.96 245.412 385.84 246.572C385.72 247.732 385.6 248.762 385.5 249.692C385.4 250.622 385.22 251.382 385.11 252.022C385.048 252.709 384.886 253.383 384.63 254.022C384.569 253.355 384.596 252.683 384.71 252.022L384.92 249.682C384.98 248.752 385.04 247.682 385.1 246.572C385.16 245.462 385.1 244.162 385.19 242.812C385.28 241.462 385.12 240.012 385.07 238.502C384.867 235.213 384.457 231.94 383.84 228.702C382.794 222.816 380.766 217.147 377.84 211.932C376.9 210.393 375.782 208.97 374.51 207.692C373.996 207.216 373.509 206.712 373.05 206.182Z" fill="#263238"/>
<path d="M327.58 206.473C326.963 207.531 326.257 208.534 325.47 209.473C323.563 212.212 321.982 215.166 320.76 218.273C319.008 222.9 317.835 227.727 317.27 232.643C316.54 238.183 316.27 244.383 315.82 250.873C315.37 257.363 315.47 263.543 315.46 269.173C315.45 274.803 315.46 279.883 315.46 284.173C315.46 288.463 315.35 291.903 315.23 294.293C315.241 295.536 315.117 296.776 314.86 297.993C314.648 296.768 314.567 295.524 314.62 294.283C314.55 291.853 314.47 288.413 314.36 284.183C314.25 279.953 314.11 274.843 314.03 269.183C313.95 263.523 313.93 257.323 314.27 250.783C314.61 244.243 315.03 238.073 315.85 232.443C316.5 227.425 317.812 222.516 319.75 217.843C321.085 214.702 322.852 211.764 325 209.113C325.736 208.119 326.604 207.231 327.58 206.473Z" fill="#263238"/>
<path d="M394.82 290.062C394.657 288.97 394.591 287.866 394.62 286.762C394.56 284.632 394.51 281.552 394.47 277.762C394.47 275.852 394.47 273.762 394.41 271.542C394.35 269.322 394.41 266.902 394.28 264.442C394.212 261.894 393.317 259.437 391.73 257.442C390.858 256.431 389.786 255.612 388.581 255.037C387.376 254.462 386.064 254.144 384.73 254.102C382.004 254.109 379.377 255.129 377.36 256.962C375.496 258.703 374.2 260.965 373.64 263.452C373.02 265.832 372.76 268.222 372.39 270.452L371.39 276.592C370.79 280.342 370.28 283.382 369.91 285.472C369.773 286.569 369.545 287.653 369.23 288.712C369.225 287.606 369.319 286.502 369.51 285.412C369.76 283.302 370.15 280.252 370.66 276.482C370.92 274.592 371.21 272.532 371.51 270.322C371.81 268.112 372.07 265.732 372.69 263.232C373.279 260.546 374.675 258.104 376.69 256.232C378.872 254.229 381.718 253.103 384.68 253.072C386.168 253.108 387.631 253.458 388.975 254.097C390.319 254.736 391.513 255.651 392.48 256.782C394.199 258.941 395.161 261.604 395.22 264.362C395.37 266.922 395.22 269.292 395.22 271.532C395.22 273.772 395.17 275.852 395.14 277.752C395.14 281.552 395.03 284.632 394.96 286.752C395.003 287.858 394.957 288.965 394.82 290.062Z" fill="#263238"/>
<path d="M385.17 244.343C384.84 247.843 383.72 251.773 381.29 254.343C383.42 253.882 385.628 253.923 387.74 254.463C386.22 251.463 385.98 247.763 386.02 244.373" fill="#263238"/>
<path d="M394.85 267.092C394.66 267.092 394.55 265.412 393.27 263.092C392.521 261.764 391.535 260.584 390.36 259.612C388.947 258.425 387.253 257.619 385.44 257.272C383.617 256.972 381.748 257.159 380.02 257.812C378.592 258.336 377.277 259.131 376.15 260.152C374.21 261.912 373.57 263.512 373.4 263.422C373.23 263.332 373.7 261.652 375.64 259.622C376.77 258.453 378.133 257.533 379.64 256.922C381.519 256.152 383.575 255.916 385.58 256.242C387.573 256.621 389.425 257.533 390.94 258.882C392.175 259.957 393.176 261.274 393.88 262.752C395.11 265.312 394.94 267.102 394.85 267.092Z" fill="#263238"/>
<path d="M421.61 380.372C427.61 380.372 432.89 376.082 435.69 370.832C438.49 365.582 439.21 359.472 439.48 353.522C440.212 337.745 438.278 321.957 433.76 306.822L407.68 311.372L414.79 381.662L421.61 380.372Z" fill="#FFBE9D"/>
<path d="M316.05 389.122L401.03 386.032L421.64 286.452L332.13 291.422L316.05 389.122Z" fill="#263238"/>
<path d="M359.79 289.713L361.07 287.173L367.85 286.683C367.85 286.683 369.57 282.233 379.27 281.773C387.95 281.373 388.27 285.773 388.27 285.773H392.95V287.903L359.79 289.713Z" fill="#455A64"/>
<path d="M407.17 357.033L413.61 355.163C414.822 354.807 416.101 354.749 417.34 354.993C418.851 355.289 420.242 356.023 421.34 357.103C423.47 359.203 426.91 362.673 427.4 363.713C428.12 365.223 428.12 367.843 427.4 368.803C426.68 369.763 428.98 374.733 428.69 376.383C428.539 377.79 428.1 379.152 427.4 380.383C426.82 381.073 427.4 383.433 425.96 385.213C425.132 386.247 424.218 387.21 423.23 388.093C423.23 388.093 405.53 388.923 403.81 388.093C402.09 387.263 399.06 384.093 399.06 384.093C399.06 384.093 397.48 381.203 399.92 380.923L389.85 377.073C389.265 376.86 388.786 376.428 388.513 375.868C388.241 375.308 388.197 374.664 388.39 374.073C388.462 373.854 388.578 373.652 388.731 373.48C388.884 373.308 389.071 373.169 389.28 373.073C389.28 373.073 384.76 371.643 383.71 371.183C381.62 370.263 380.83 365.403 385.16 366.023C387.44 366.353 390.53 367.023 390.53 367.023C390.53 367.023 388.88 364.343 391.19 362.743C392.59 361.743 398.89 362.953 398.89 362.953L407.17 357.043V357.033Z" fill="#FFBE9D"/>
<path d="M409.41 383.593C407.634 383.647 405.863 383.383 404.18 382.813C402.441 382.424 400.8 381.682 399.36 380.633C399.43 380.513 401.54 381.543 404.36 382.313C407.18 383.083 409.43 383.473 409.41 383.593Z" fill="#EB996E"/>
<path d="M405.56 377.303C402.788 376.862 400.046 376.251 397.35 375.473C394.61 374.869 391.911 374.091 389.27 373.143C394.78 374.194 400.22 375.583 405.56 377.303Z" fill="#EB996E"/>
<path d="M407.68 371.043C401.752 370.014 395.889 368.642 390.12 366.933C396.048 367.961 401.911 369.334 407.68 371.043Z" fill="#EB996E"/>
<path d="M414.21 362.982C413.481 363.303 412.72 363.548 411.94 363.712L409.44 364.352L407.96 364.722C407.405 364.862 406.832 364.916 406.26 364.882C405.7 364.842 405.144 364.752 404.6 364.612L403.11 364.272L400.61 363.672C399.824 363.526 399.056 363.295 398.32 362.982C399.117 363.004 399.908 363.115 400.68 363.312L403.22 363.802C404.233 364.042 405.258 364.229 406.29 364.362C407.307 364.342 408.316 364.184 409.29 363.892L411.82 363.352C412.601 363.143 413.402 363.018 414.21 362.982Z" fill="#EB996E"/>
<path d="M415.34 366.373C415.4 366.373 415.64 366.553 415.83 367.033C416.087 367.671 416.112 368.379 415.9 369.033C415.698 369.681 415.282 370.242 414.72 370.623C414.29 370.903 413.97 370.943 413.94 370.883C413.91 370.823 414.94 370.203 415.4 368.883C415.572 368.053 415.551 367.194 415.34 366.373Z" fill="#EB996E"/>
<path d="M414.98 373.213C415.1 373.153 415.5 373.863 415.44 374.833C415.38 375.803 414.92 376.473 414.8 376.393C414.68 376.313 414.88 375.653 414.92 374.803C414.96 373.953 414.83 373.263 414.98 373.213Z" fill="#EB996E"/>
<path d="M415.08 380.632C415.21 380.582 415.48 381.062 415.35 381.692C415.22 382.322 414.8 382.692 414.69 382.562C414.58 382.432 414.75 382.082 414.84 381.562C414.93 381.042 414.94 380.672 415.08 380.632Z" fill="#EB996E"/>
<path d="M417.01 362.572C416.443 362.635 415.869 362.608 415.31 362.492L413.49 362.252C412.777 362.105 412.045 362.067 411.32 362.142C410.629 362.304 409.977 362.599 409.4 363.012C408.84 363.382 408.4 363.802 407.89 364.072C407.417 364.422 406.848 364.617 406.26 364.632C406.26 364.542 406.87 364.372 407.69 363.762C408.688 362.776 409.909 362.045 411.25 361.632C411.656 361.593 412.064 361.593 412.47 361.632C412.88 361.632 413.21 361.752 413.56 361.812L415.37 362.152C415.934 362.214 416.486 362.356 417.01 362.572Z" fill="#EB996E"/>
<path d="M427.23 380.703C427.349 380.282 427.499 379.871 427.68 379.473C428.501 377.576 428.618 375.449 428.01 373.473C427.81 372.593 427.4 371.713 427.18 370.663C427.048 369.569 427.123 368.46 427.4 367.393C427.518 366.29 427.316 365.176 426.82 364.183C426.316 363.167 425.699 362.21 424.98 361.333C424.29 360.463 423.62 359.613 422.98 358.853C421.849 357.46 420.416 356.342 418.79 355.583C417.686 355.091 416.471 354.904 415.27 355.043C414.43 355.163 413.99 355.383 413.97 355.343C413.95 355.303 414.07 355.263 414.28 355.153C414.601 355.014 414.937 354.911 415.28 354.843C416.522 354.626 417.801 354.761 418.97 355.233C420.674 355.974 422.181 357.104 423.37 358.533C424.07 359.303 424.75 360.143 425.45 361.013C426.198 361.938 426.839 362.944 427.36 364.013C427.9 365.095 428.112 366.312 427.97 367.513C427.706 368.527 427.622 369.58 427.72 370.623C427.91 371.623 428.31 372.513 428.5 373.413C428.721 374.252 428.832 375.116 428.83 375.983C428.782 377.231 428.479 378.456 427.94 379.583C427.754 379.986 427.515 380.363 427.23 380.703Z" fill="#EB996E"/>
<path d="M367.74 331.473L297.97 342.553L301.07 306.143L262.27 298.643L257.55 352.553L256.73 364.913C256.46 369.03 257.25 373.147 259.023 376.872C260.796 380.597 263.494 383.806 266.86 386.193C269.929 388.369 273.463 389.798 277.182 390.368C280.9 390.937 284.701 390.631 288.28 389.473L303.28 384.583L376.4 358.583" fill="#FFBE9D"/>
<path d="M409.96 323.942C410.008 323.654 409.993 323.358 409.914 323.075C409.835 322.793 409.696 322.532 409.505 322.31C409.314 322.087 409.077 321.91 408.81 321.789C408.543 321.669 408.253 321.608 407.96 321.612C404.03 321.612 393.41 321.612 389.66 322.722C385.02 324.032 367.73 331.452 367.73 331.452L375.06 358.452L401.59 358.732C401.59 358.732 411.28 354.282 411.4 352.352C411.39 351.146 411.31 349.94 411.16 348.742L414.09 347.172C418.45 344.412 415.65 339.102 415.65 339.102C415.65 339.102 418.65 337.422 418.81 334.382C418.883 333.492 418.702 332.6 418.287 331.809C417.873 331.017 417.243 330.36 416.47 329.912C416.47 329.912 417.67 325.632 415.47 324.482C413.27 323.332 409.47 324.802 409.47 324.802C409.723 324.577 409.895 324.275 409.96 323.942Z" fill="#FFBE9D"/>
<path d="M411.49 324.383C411.234 324.523 410.957 324.62 410.67 324.673C410.14 324.823 409.35 324.993 408.38 325.163C406.38 325.513 403.72 325.803 400.73 326.163C398.182 326.393 395.65 326.78 393.15 327.323C391.24 327.763 390.15 328.323 390.15 328.323C390.368 328.13 390.614 327.971 390.88 327.853C391.586 327.503 392.322 327.218 393.08 327.003C395.576 326.354 398.121 325.913 400.69 325.683C403.69 325.363 406.4 325.133 408.34 324.883C410.28 324.633 411.46 324.313 411.49 324.383Z" fill="#EB996E"/>
<path d="M416.48 329.803C415.913 330.22 415.281 330.541 414.61 330.753C413.043 331.358 411.427 331.83 409.78 332.163C407.85 332.563 406.1 332.823 404.78 332.993C404.099 333.129 403.404 333.183 402.71 333.153C402.71 332.983 405.81 332.423 409.63 331.653C411.256 331.32 412.865 330.906 414.45 330.413C415.107 330.149 415.786 329.945 416.48 329.803Z" fill="#EB996E"/>
<path d="M415.68 339.203C412.027 340.887 408.062 341.786 404.04 341.843C404.04 341.683 406.68 341.353 409.88 340.623C413.08 339.893 415.68 339.053 415.68 339.203Z" fill="#EB996E"/>
<path d="M414.1 347.223C411.311 348.64 408.228 349.383 405.1 349.393C408.105 348.688 411.105 347.965 414.1 347.223Z" fill="#EB996E"/>
<path d="M400.26 342.473C400.26 342.533 399.99 342.703 399.45 342.753C398.739 342.813 398.03 342.618 397.45 342.203C396.866 341.789 396.445 341.184 396.26 340.493C396.13 339.963 396.2 339.633 396.26 339.633C396.32 339.633 396.54 340.923 397.74 341.773C398.512 342.205 399.376 342.445 400.26 342.473Z" fill="#EB996E"/>
<path d="M399.68 350.813C399.68 350.953 398.68 351.013 397.73 350.203C396.78 349.393 396.73 348.333 396.9 348.343C397.07 348.353 397.31 349.143 398.08 349.813C398.85 350.483 399.68 350.663 399.68 350.813Z" fill="#EB996E"/>
<path d="M396.68 333.782C396.74 333.922 396.01 334.152 395.33 333.632C394.65 333.112 394.67 332.352 394.82 332.372C394.97 332.392 395.14 332.862 395.64 333.222C396.14 333.582 396.61 333.642 396.68 333.782Z" fill="#EB996E"/>
<path d="M367.74 331.473L367.95 331.353L368.58 331.063L371.04 329.973C373.2 329.043 376.33 327.693 380.3 326.063C382.3 325.263 384.46 324.373 386.86 323.483C388.093 322.988 389.364 322.594 390.66 322.303C392.056 322.055 393.465 321.881 394.88 321.783C397.78 321.553 400.88 321.453 404.06 321.413H406.49H407.73C408.187 321.389 408.642 321.486 409.05 321.693C409.485 321.905 409.835 322.26 410.04 322.698C410.246 323.137 410.295 323.632 410.18 324.103C410.118 324.244 410.013 324.363 409.88 324.443L409.58 324.633L408.98 324.913C408.57 325.088 408.149 325.235 407.72 325.353C407.655 325.368 407.587 325.358 407.529 325.324C407.471 325.291 407.429 325.237 407.41 325.173C407.401 325.14 407.398 325.107 407.403 325.074C407.407 325.04 407.418 325.008 407.435 324.98C407.451 324.951 407.474 324.925 407.5 324.905C407.527 324.885 407.558 324.871 407.59 324.863C408.674 324.548 409.776 324.301 410.89 324.123C412.045 323.912 413.224 323.871 414.39 324.003C415.024 324.073 415.623 324.331 416.11 324.743C416.56 325.205 416.857 325.795 416.96 326.433C417.139 327.652 417.061 328.895 416.73 330.083L416.6 329.773C417.172 330.103 417.672 330.545 418.07 331.073C418.566 331.743 418.894 332.522 419.026 333.345C419.158 334.168 419.091 335.011 418.83 335.803C418.279 337.323 417.219 338.605 415.83 339.433L415.93 339.083C416.651 340.509 416.942 342.114 416.77 343.703C416.658 344.478 416.376 345.219 415.943 345.873C415.511 346.526 414.94 347.076 414.27 347.483L411.35 349.053L411.48 348.803C411.55 349.503 411.62 350.203 411.67 350.893C411.67 351.233 411.67 351.583 411.72 351.893C411.72 352.063 411.72 352.243 411.72 352.423C411.693 352.626 411.621 352.82 411.51 352.993C411.089 353.552 410.579 354.038 410 354.433C409.46 354.833 408.9 355.193 408.35 355.533C406.214 356.795 404.014 357.946 401.76 358.983H401.67L382.36 358.683L377.02 358.573L375.62 358.523C375.46 358.54 375.3 358.54 375.14 358.523C375.3 358.507 375.46 358.507 375.62 358.523H377.02H382.36L401.67 358.633H401.58C403.816 357.594 405.995 356.439 408.11 355.173C408.65 354.843 409.2 354.483 409.72 354.093C410.249 353.735 410.716 353.293 411.1 352.783C411.175 352.679 411.227 352.559 411.25 352.433V351.943C411.25 351.603 411.25 351.263 411.25 350.943C411.2 350.263 411.13 349.573 411.05 348.883C411.043 348.834 411.052 348.784 411.076 348.741C411.099 348.698 411.136 348.663 411.18 348.643L414.1 347.063C414.708 346.694 415.228 346.196 415.62 345.602C416.013 345.009 416.269 344.337 416.37 343.633C416.518 342.149 416.241 340.654 415.57 339.323C415.541 339.263 415.537 339.194 415.557 339.131C415.578 339.067 415.622 339.014 415.68 338.983C416.969 338.223 417.957 337.044 418.48 335.643C418.713 334.929 418.772 334.17 418.652 333.429C418.532 332.688 418.236 331.986 417.79 331.383C417.441 330.92 417.002 330.532 416.5 330.243C416.449 330.214 416.408 330.169 416.384 330.114C416.361 330.06 416.356 330 416.37 329.943C416.676 328.833 416.75 327.672 416.59 326.533C416.529 325.999 416.28 325.505 415.888 325.139C415.496 324.772 414.986 324.558 414.45 324.533C413.337 324.408 412.211 324.448 411.11 324.653C410.015 324.817 408.933 325.054 407.87 325.363L407.74 324.873C408.142 324.768 408.537 324.634 408.92 324.473C409.11 324.393 409.31 324.303 409.48 324.213C409.65 324.123 409.83 323.943 409.89 323.963C409.926 323.605 409.871 323.243 409.73 322.913C409.557 322.584 409.288 322.316 408.96 322.143C408.623 321.972 408.247 321.896 407.87 321.923H404.21C401.01 321.923 397.94 322.043 395.05 322.253C393.653 322.345 392.261 322.509 390.88 322.743C389.603 323.028 388.35 323.409 387.13 323.883C384.74 324.753 382.55 325.623 380.56 326.403L371.25 330.173L368.76 331.173L368.11 331.433L367.74 331.473Z" fill="#EB996E"/>
<path d="M298.25 342.473C296.356 343.737 294.626 345.232 293.1 346.923C291.711 348.73 290.555 350.706 289.66 352.803C289.709 352.11 289.885 351.432 290.18 350.803C291.411 347.709 293.593 345.087 296.41 343.313C296.969 342.927 297.592 342.643 298.25 342.473Z" fill="#EB996E"/>
<path d="M389.36 126.722C388.666 117.893 384.674 109.649 378.177 103.631C371.681 97.6121 363.156 94.2602 354.3 94.2422H352.47C332.79 95.3522 322.73 112.682 324.39 132.332L327.78 211.082C327.807 211.725 328.006 212.349 328.359 212.888C328.711 213.426 329.202 213.86 329.78 214.142L373.96 234.872L372.68 193.542C372.68 193.542 391.61 190.642 391.88 171.722C391.96 162.592 390.68 143.752 389.36 126.722Z" fill="#FFBE9D"/>
<path d="M372.79 193.473C364.004 193.465 355.406 190.931 348.02 186.173C348.02 186.173 353.82 199.793 372.7 198.173L372.79 193.473Z" fill="#EB996E"/>
<path d="M382.68 138.472C382.683 139.176 382.412 139.853 381.925 140.361C381.438 140.868 380.773 141.167 380.07 141.192C379.726 141.221 379.38 141.18 379.052 141.072C378.724 140.964 378.421 140.791 378.162 140.563C377.902 140.335 377.691 140.057 377.542 139.746C377.392 139.435 377.306 139.097 377.29 138.752C377.282 138.049 377.549 137.371 378.035 136.862C378.521 136.354 379.187 136.056 379.89 136.032C380.234 136.005 380.58 136.047 380.908 136.156C381.236 136.264 381.539 136.437 381.799 136.665C382.059 136.892 382.271 137.169 382.422 137.48C382.573 137.79 382.661 138.128 382.68 138.472Z" fill="#263238"/>
<path d="M354.08 139.352C354.088 140.057 353.819 140.737 353.331 141.246C352.843 141.755 352.175 142.051 351.47 142.072C351.126 142.1 350.781 142.058 350.453 141.949C350.126 141.84 349.824 141.667 349.565 141.439C349.306 141.212 349.095 140.935 348.944 140.624C348.794 140.314 348.708 139.977 348.69 139.632C348.684 138.928 348.954 138.25 349.442 137.741C349.929 137.233 350.596 136.936 351.3 136.912C351.644 136.885 351.989 136.927 352.317 137.036C352.644 137.145 352.946 137.318 353.205 137.545C353.464 137.773 353.675 138.05 353.826 138.36C353.976 138.671 354.062 139.008 354.08 139.352Z" fill="#263238"/>
<path d="M367.21 158.032C367.21 157.872 369 157.562 371.93 157.192C372.67 157.112 373.38 156.972 373.5 156.462C373.567 155.696 373.396 154.928 373.01 154.262L370.83 148.602C367.83 140.602 365.6 133.932 365.93 133.812C366.26 133.692 368.93 140.122 372.01 148.182L374.1 153.872C374.566 154.767 374.7 155.798 374.48 156.782C374.372 157.045 374.204 157.278 373.991 157.466C373.778 157.653 373.524 157.789 373.25 157.862C372.839 157.974 372.416 158.034 371.99 158.042C369.05 158.192 367.22 158.202 367.21 158.032Z" fill="#263238"/>
<path d="M358.68 160.033C359.15 160.033 359.15 163.153 361.85 165.403C364.55 167.653 367.9 167.303 367.93 167.743C367.93 167.943 367.18 168.363 365.76 168.393C363.91 168.417 362.111 167.786 360.68 166.613C359.311 165.487 358.433 163.873 358.23 162.113C358.08 160.793 358.43 160.013 358.68 160.033Z" fill="#263238"/>
<path d="M357.954 128.67C357.664 129.46 354.764 129.08 351.354 129.49C347.944 129.9 345.184 130.82 344.724 130.11C344.524 129.77 345.004 129.02 346.124 128.26C347.603 127.31 349.285 126.724 351.034 126.55C352.779 126.342 354.548 126.554 356.194 127.17C357.444 127.68 358.074 128.3 357.954 128.67Z" fill="#263238"/>
<path d="M384.704 131.17C384.184 131.82 382.184 131.17 379.774 131.1C377.364 131.03 375.334 131.53 374.864 130.84C374.654 130.51 374.984 129.84 375.864 129.22C377.062 128.476 378.454 128.104 379.863 128.15C381.273 128.197 382.637 128.659 383.784 129.48C384.644 130.16 384.924 130.84 384.704 131.17Z" fill="#263238"/>
<path d="M327.22 146.332C326.9 146.192 314.22 142.462 314.62 155.402C315.02 168.342 327.91 165.272 327.92 164.902C327.93 164.532 327.22 146.332 327.22 146.332Z" fill="#FFBE9D"/>
<path d="M324.96 160.123C324.9 160.123 324.74 160.283 324.36 160.473C323.832 160.718 323.231 160.75 322.68 160.563C321.3 160.093 320.08 157.963 319.95 155.633C319.887 154.527 320.068 153.421 320.48 152.393C320.589 151.984 320.797 151.609 321.084 151.299C321.372 150.988 321.731 150.753 322.13 150.613C322.386 150.538 322.66 150.554 322.906 150.658C323.152 150.762 323.355 150.947 323.48 151.183C323.66 151.543 323.59 151.803 323.65 151.823C323.71 151.843 323.93 151.603 323.81 151.073C323.722 150.754 323.533 150.473 323.27 150.273C322.908 150.016 322.459 149.911 322.02 149.983C321.492 150.103 321.003 150.356 320.6 150.718C320.198 151.081 319.894 151.54 319.72 152.053C319.204 153.19 318.974 154.436 319.05 155.683C319.21 158.293 320.62 160.683 322.5 161.173C322.843 161.256 323.2 161.262 323.546 161.191C323.891 161.12 324.217 160.974 324.5 160.763C324.94 160.473 325 160.143 324.96 160.123Z" fill="#EB996E"/>
<path d="M335.68 107.893L389.6 109.083C387.765 105.417 385.043 102.268 381.68 99.9226C374.67 94.4922 366.123 91.4158 357.26 91.1326C348.47 90.9726 330.56 101.693 324.19 107.753C319.09 112.603 319.13 116.803 319.13 116.803C318.32 123.803 322.23 131.743 323.79 138.613C324.59 142.153 326.14 152.863 326.14 152.863C329.14 152.863 330.21 150.493 329.76 147.553L329.21 136.023C329.21 136.023 339.31 128.843 334.52 115.703C333.78 114.653 332.14 109.853 335.68 107.893Z" fill="#263238"/>
<path d="M347.02 148.792C346.977 148.794 346.933 148.787 346.893 148.771C346.852 148.756 346.815 148.733 346.784 148.703C346.752 148.673 346.727 148.638 346.709 148.598C346.691 148.558 346.681 148.516 346.68 148.472C346.659 148.386 346.672 148.295 346.716 148.219C346.761 148.142 346.834 148.086 346.92 148.062C347.01 148.051 347.101 148.075 347.174 148.129C347.246 148.183 347.295 148.263 347.31 148.352C347.325 148.401 347.329 148.451 347.322 148.501C347.315 148.551 347.297 148.599 347.269 148.641C347.242 148.683 347.205 148.719 347.162 148.745C347.119 148.771 347.07 148.787 347.02 148.792Z" fill="#EB996E"/>
<path d="M352.58 147.543C352.4 147.543 352.23 147.433 352.18 147.213C352.154 147.12 352.165 147.021 352.209 146.935C352.254 146.85 352.329 146.785 352.42 146.753C352.517 146.747 352.612 146.78 352.684 146.843C352.757 146.907 352.802 146.996 352.81 147.093C352.839 147.183 352.83 147.28 352.787 147.365C352.744 147.449 352.67 147.513 352.58 147.543Z" fill="#EB996E"/>
<path d="M356.32 147.473C356.14 147.473 355.97 147.283 355.93 146.993C355.89 146.703 356.01 146.453 356.19 146.433C356.37 146.413 356.53 146.623 356.57 146.913C356.61 147.203 356.49 147.473 356.32 147.473Z" fill="#EB996E"/>
<path d="M349.74 152.283C349.57 152.283 349.42 152.193 349.42 152.083C349.42 151.973 349.57 151.873 349.74 151.873C349.91 151.873 350.06 151.973 350.06 152.083C350.06 152.193 349.92 152.283 349.74 152.283Z" fill="#EB996E"/>
<path d="M354.84 151.113C354.744 151.121 354.65 151.09 354.577 151.029C354.503 150.967 354.458 150.878 354.45 150.783C354.442 150.687 354.472 150.593 354.534 150.519C354.596 150.446 354.684 150.401 354.78 150.393C354.825 150.391 354.869 150.399 354.911 150.415C354.953 150.431 354.991 150.455 355.023 150.485C355.056 150.516 355.082 150.553 355.1 150.593C355.119 150.634 355.129 150.678 355.13 150.723C355.142 150.813 355.118 150.904 355.064 150.976C355.01 151.049 354.929 151.098 354.84 151.113Z" fill="#EB996E"/>
<path d="M381.35 148.003C381.306 148.01 381.261 148.008 381.217 147.997C381.174 147.986 381.133 147.966 381.098 147.939C381.062 147.912 381.033 147.878 381.011 147.839C380.989 147.8 380.975 147.757 380.97 147.713C380.948 147.625 380.961 147.533 381.006 147.455C381.05 147.377 381.124 147.319 381.21 147.293C381.3 147.281 381.391 147.305 381.464 147.359C381.536 147.413 381.585 147.493 381.6 147.583C381.612 147.627 381.615 147.673 381.609 147.718C381.603 147.763 381.587 147.807 381.564 147.846C381.541 147.885 381.51 147.919 381.473 147.946C381.436 147.973 381.394 147.992 381.35 148.003Z" fill="#EB996E"/>
<path d="M385.14 147.663C385.059 147.689 384.973 147.69 384.891 147.665C384.81 147.64 384.739 147.591 384.687 147.523C384.635 147.456 384.606 147.374 384.602 147.289C384.599 147.204 384.622 147.121 384.668 147.05C384.715 146.978 384.782 146.923 384.861 146.892C384.94 146.861 385.027 146.855 385.109 146.875C385.192 146.895 385.266 146.94 385.322 147.004C385.377 147.068 385.412 147.148 385.42 147.233C385.438 147.327 385.419 147.424 385.367 147.504C385.315 147.584 385.233 147.641 385.14 147.663Z" fill="#EB996E"/>
<path d="M378.01 148.093C377.933 148.112 377.852 148.1 377.783 148.061C377.714 148.022 377.663 147.958 377.64 147.883C377.623 147.799 377.639 147.712 377.686 147.641C377.733 147.57 377.806 147.52 377.89 147.503C377.973 147.485 378.06 147.502 378.132 147.549C378.203 147.596 378.253 147.669 378.27 147.753C378.279 147.832 378.256 147.911 378.208 147.975C378.16 148.038 378.089 148.08 378.01 148.093Z" fill="#EB996E"/>
<path d="M380.81 151.882C380.745 151.925 380.668 151.947 380.59 151.944C380.512 151.942 380.437 151.916 380.375 151.869C380.312 151.823 380.266 151.758 380.241 151.684C380.217 151.61 380.215 151.531 380.238 151.456C380.26 151.381 380.304 151.315 380.365 151.267C380.426 151.219 380.501 151.19 380.579 151.185C380.656 151.181 380.734 151.2 380.8 151.24C380.866 151.281 380.919 151.341 380.95 151.412C380.993 151.494 381.002 151.588 380.976 151.676C380.95 151.764 380.89 151.838 380.81 151.882Z" fill="#EB996E"/>
<path d="M384.04 151.242C383.964 151.228 383.896 151.184 383.851 151.121C383.807 151.057 383.788 150.979 383.8 150.902C383.835 150.837 383.892 150.785 383.961 150.756C384.029 150.727 384.106 150.722 384.177 150.741C384.249 150.761 384.312 150.804 384.356 150.865C384.401 150.925 384.423 150.998 384.42 151.072C384.391 151.144 384.335 151.202 384.264 151.234C384.193 151.266 384.113 151.269 384.04 151.242Z" fill="#EB996E"/>
<path d="M323.86 108.473C323.259 106.083 323.22 103.587 323.747 101.18C324.273 98.7725 325.351 96.5203 326.894 94.5997C328.438 92.6792 330.406 91.1427 332.643 90.1108C334.881 89.0789 337.327 88.5798 339.79 88.6526C342.31 88.7526 344.79 89.4626 347.31 89.1926C351.98 88.6826 355.58 84.9426 359.91 83.1226C363.328 81.7902 367.093 81.6394 370.607 82.694C374.121 83.7486 377.181 85.9482 379.3 88.9426C380.94 91.3926 382.01 94.4226 384.53 95.9426C386.7 97.2726 389.44 97.1626 391.88 97.9426C396.82 99.4226 400.2 104.673 399.94 109.823C399.731 112.402 398.818 114.874 397.299 116.969C395.781 119.064 393.716 120.701 391.33 121.703C388.93 122.661 386.345 123.068 383.766 122.895C381.188 122.722 378.681 121.973 376.43 120.703C372.36 118.433 368.72 114.573 364.06 114.703C359.24 114.843 355.06 119.383 350.3 118.443C347.82 117.953 345.91 116.043 344.09 114.283C342.27 112.523 340.19 110.733 337.66 110.583C335.13 110.433 333.82 113.903 334.73 116.263L323.86 108.473Z" fill="#263238"/>
<path d="M388.58 102.232C388.554 102.297 388.524 102.361 388.49 102.422C388.397 102.601 388.293 102.775 388.18 102.942C387.742 103.594 387.221 104.186 386.63 104.702C385.69 105.524 384.6 106.155 383.42 106.562C381.846 107.1 380.156 107.2 378.53 106.852C376.546 106.434 374.742 105.406 373.37 103.912C371.9 102.302 371.02 100.132 369.65 98.2323C368.979 97.2498 368.085 96.4408 367.04 95.8723C365.928 95.3223 364.7 95.0511 363.46 95.0823C362.175 95.1207 360.917 95.4634 359.79 96.0823C358.643 96.7315 357.705 97.6964 357.09 98.8623C356.44 100.052 355.97 101.352 355.19 102.502C354.82 103.1 354.313 103.602 353.712 103.967C353.111 104.332 352.431 104.55 351.73 104.602C350.397 104.623 349.089 104.247 347.97 103.522C346.917 102.861 345.956 102.064 345.11 101.152C343.44 99.4723 341.8 97.7923 339.76 97.3423C338.818 97.1596 337.848 97.1783 336.914 97.3972C335.98 97.6161 335.103 98.0302 334.34 98.6123C333.038 99.5587 332.005 100.827 331.34 102.292C330.831 103.401 330.455 104.565 330.22 105.762C330.02 106.762 329.93 107.522 329.87 108.052C329.848 108.325 329.808 108.595 329.75 108.862C329.74 108.793 329.74 108.722 329.75 108.652C329.75 108.512 329.75 108.312 329.75 108.042C329.792 107.264 329.882 106.489 330.02 105.722C330.204 104.502 330.54 103.309 331.02 102.172C331.668 100.647 332.702 99.3169 334.02 98.3123C334.82 97.6848 335.746 97.236 336.734 96.9963C337.723 96.7565 338.751 96.7313 339.75 96.9223C341.96 97.3923 343.67 99.1523 345.33 100.812C346.157 101.687 347.091 102.453 348.11 103.092C349.146 103.762 350.357 104.11 351.59 104.092C352.211 104.039 352.812 103.841 353.343 103.515C353.874 103.189 354.322 102.742 354.65 102.212C355.38 101.132 355.85 99.8423 356.52 98.6123C357.181 97.3531 358.192 96.3114 359.43 95.6123C360.632 94.9583 361.972 94.5984 363.34 94.5623C364.664 94.5351 365.975 94.8302 367.16 95.4223C368.27 96.0313 369.219 96.895 369.93 97.9423C371.34 99.9423 372.18 102.062 373.58 103.622C374.884 105.062 376.603 106.061 378.5 106.482C380.063 106.843 381.695 106.77 383.22 106.272C384.377 105.901 385.452 105.314 386.39 104.542C387.219 103.872 387.955 103.095 388.58 102.232Z" fill="#455A64"/>
<path d="M398.35 102.473C398.48 102.791 398.555 103.129 398.57 103.473C398.648 104.444 398.557 105.422 398.3 106.363C397.916 107.759 397.234 109.056 396.3 110.163C395.134 111.509 393.678 112.573 392.04 113.273C389.061 114.486 385.805 114.852 382.63 114.333C381.68 114.199 380.739 114.012 379.81 113.773C379.461 113.711 379.124 113.597 378.81 113.433C378.81 113.353 380.28 113.713 382.68 113.963C385.78 114.365 388.931 113.962 391.83 112.793C393.399 112.125 394.802 111.122 395.94 109.853C396.847 108.803 397.528 107.577 397.94 106.253C398.286 105.024 398.425 103.747 398.35 102.473Z" fill="#455A64"/>
<path d="M306.32 310.783C306.526 312.826 307.31 314.769 308.58 316.383C309.74 317.893 312.09 319.383 313.98 319.253C315.404 319.325 316.823 319.027 318.097 318.387C319.371 317.748 320.458 316.788 321.25 315.603C323.56 311.943 324.12 304.313 322.25 299.803C320.98 296.703 318.12 293.803 314.77 293.733C310.37 293.633 307.61 296.813 306.67 300.033" fill="#E0E0E0"/>
<path d="M306.68 300.032C306.827 299.271 307.104 298.54 307.5 297.872C307.932 297.066 308.489 296.334 309.15 295.703C310.026 294.856 311.093 294.231 312.26 293.882C312.938 293.676 313.641 293.561 314.35 293.543C315.125 293.5 315.902 293.602 316.64 293.842C318.254 294.41 319.673 295.427 320.73 296.772C321.913 298.227 322.735 299.94 323.13 301.772C323.553 303.719 323.705 305.715 323.58 307.703C323.37 310.833 322.76 313.952 321.02 316.332C320.164 317.455 319.015 318.32 317.7 318.832C316.51 319.31 315.231 319.525 313.95 319.462C313.009 319.469 312.081 319.243 311.25 318.802C310.522 318.423 309.849 317.945 309.25 317.382C308.302 316.447 307.551 315.332 307.04 314.102C306.707 313.325 306.472 312.508 306.34 311.673C306.306 311.454 306.286 311.234 306.28 311.013C306.263 310.937 306.263 310.858 306.28 310.782C306.473 311.894 306.809 312.977 307.28 314.002C307.818 315.175 308.571 316.237 309.5 317.132C310.104 317.661 310.777 318.105 311.5 318.453C312.272 318.851 313.131 319.054 314 319.042C315.267 319.105 316.531 318.866 317.687 318.345C318.843 317.823 319.859 317.034 320.65 316.042C322.26 313.812 322.88 310.742 323.08 307.682C323.29 303.682 322.63 299.742 320.38 297.082C319.383 295.804 318.05 294.827 316.53 294.263C315.837 294.033 315.109 293.928 314.38 293.953C313.703 293.959 313.031 294.056 312.38 294.242C311.26 294.56 310.232 295.139 309.38 295.932C308.714 296.523 308.141 297.211 307.68 297.972C307.308 298.639 306.974 299.327 306.68 300.032Z" fill="#263238"/>
<path d="M303.98 310.983C304.188 313.026 304.971 314.968 306.24 316.583C307.4 318.093 309.75 319.583 311.64 319.453C313.064 319.526 314.483 319.227 315.757 318.588C317.031 317.948 318.118 316.988 318.91 315.803C321.21 312.133 321.78 304.513 319.91 300.003C318.64 296.893 315.79 294.003 312.44 293.933C310.579 293.917 308.767 294.529 307.297 295.671C305.827 296.812 304.785 298.416 304.34 300.223" fill="#E0E0E0"/>
<path d="M304.36 300.223C304.508 299.464 304.785 298.737 305.18 298.073C305.608 297.265 306.166 296.532 306.83 295.903C308.227 294.55 310.086 293.778 312.03 293.743C312.805 293.7 313.582 293.802 314.32 294.043C315.936 294.608 317.355 295.625 318.41 296.973C319.593 298.427 320.415 300.14 320.81 301.973C321.235 303.919 321.383 305.915 321.25 307.903C321.05 311.033 320.44 314.143 318.7 316.533C317.844 317.655 316.695 318.52 315.38 319.033C314.19 319.51 312.911 319.725 311.63 319.663C310.688 319.667 309.761 319.436 308.93 318.993C308.198 318.622 307.525 318.147 306.93 317.583C305.98 316.645 305.228 315.527 304.72 314.293C304.381 313.52 304.146 312.707 304.02 311.873C303.986 311.654 303.966 311.434 303.96 311.213C303.943 311.137 303.943 311.058 303.96 310.983C304.154 312.091 304.49 313.17 304.96 314.193C305.491 315.372 306.245 316.438 307.18 317.333C307.784 317.861 308.456 318.306 309.18 318.653C309.954 319.047 310.811 319.249 311.68 319.243C312.947 319.306 314.211 319.066 315.367 318.545C316.523 318.023 317.539 317.234 318.33 316.243C319.94 314.003 320.56 310.943 320.75 307.883C320.97 303.883 320.31 299.943 318.05 297.283C317.062 295.999 315.731 295.021 314.21 294.463C313.517 294.233 312.789 294.128 312.06 294.153C311.383 294.161 310.711 294.258 310.06 294.443C308.941 294.761 307.913 295.34 307.06 296.133C306.4 296.728 305.834 297.419 305.38 298.183C305.005 298.845 304.664 299.526 304.36 300.223Z" fill="#263238"/>
<path d="M308.22 299.102C307.111 298.963 305.986 299.19 305.017 299.747C304.048 300.305 303.287 301.163 302.85 302.192C302.025 304.291 302.025 306.624 302.85 308.722C303.198 309.807 303.767 310.808 304.52 311.662C305.294 312.517 306.37 313.037 307.52 313.112C308.359 313.072 309.176 312.829 309.9 312.404C310.624 311.979 311.235 311.385 311.68 310.672C312.454 309.571 312.98 308.315 313.224 306.992C313.467 305.668 313.422 304.307 313.09 303.002C312.63 301.262 311.36 299.492 309.57 299.442" fill="#E0E0E0"/>
<path d="M309.53 299.472C309.53 299.472 309.66 299.472 309.92 299.472C310.306 299.517 310.677 299.643 311.01 299.842C311.603 300.233 312.111 300.739 312.504 301.33C312.897 301.921 313.168 302.585 313.3 303.282C313.778 305.335 313.56 307.488 312.68 309.402C312.173 310.544 311.406 311.551 310.44 312.342C309.917 312.793 309.294 313.112 308.622 313.274C307.951 313.435 307.251 313.435 306.58 313.272C305.269 312.852 304.165 311.952 303.49 310.752C302.877 309.677 302.444 308.508 302.21 307.292C301.96 306.277 301.92 305.221 302.092 304.189C302.264 303.158 302.644 302.172 303.21 301.292C303.616 300.71 304.134 300.214 304.733 299.833C305.332 299.452 306 299.193 306.7 299.072C307.078 299.016 307.462 299.016 307.84 299.072C308.09 299.122 308.22 299.162 308.22 299.182C307.722 299.165 307.223 299.195 306.73 299.272C305.413 299.58 304.261 300.377 303.51 301.502C302.994 302.353 302.655 303.299 302.512 304.283C302.37 305.267 302.427 306.271 302.68 307.232C302.917 308.389 303.339 309.5 303.93 310.522C304.54 311.607 305.536 312.421 306.72 312.802C307.311 312.947 307.928 312.948 308.52 312.806C309.111 312.663 309.66 312.381 310.12 311.982C311.03 311.247 311.756 310.308 312.24 309.242C313.103 307.424 313.349 305.373 312.94 303.402C312.725 302.072 312.009 300.874 310.94 300.052C310.509 299.775 310.031 299.579 309.53 299.472Z" fill="#263238"/>
<path d="M313.26 315.542C313.19 315.542 313.08 315.222 312.73 314.822C312.276 314.308 311.687 313.93 311.03 313.732C310.345 313.542 309.64 313.431 308.93 313.402C308.37 313.402 308.02 313.312 308.01 313.242C308 313.172 308.35 313.092 308.92 313.032C309.679 312.951 310.447 313.019 311.18 313.232C311.944 313.452 312.601 313.943 313.03 314.612C313.35 315.132 313.32 315.532 313.26 315.542Z" fill="#263238"/>
<path d="M314.05 297.742C314.05 297.742 313.9 298.092 313.43 298.462C312.812 298.935 312.087 299.251 311.32 299.382C310.558 299.523 309.773 299.482 309.03 299.262C308.46 299.072 308.16 298.852 308.19 298.792C309.183 298.946 310.191 298.973 311.19 298.872C312.186 298.615 313.147 298.235 314.05 297.742Z" fill="#263238"/>
<path d="M169.058 113.399C168.698 113.259 154.748 109.599 155.588 123.709C156.428 137.819 170.418 134.059 170.428 133.649C170.438 133.239 169.058 113.399 169.058 113.399Z" fill="#FFBE9D"/>
<path d="M165.798 128.569C165.728 128.519 165.558 128.749 165.158 128.969C164.587 129.254 163.926 129.305 163.318 129.109C161.798 128.659 160.398 126.369 160.178 123.829C160.069 122.641 160.219 121.443 160.618 120.319C160.724 119.869 160.937 119.452 161.241 119.103C161.544 118.755 161.928 118.485 162.358 118.319C162.637 118.227 162.938 118.236 163.21 118.344C163.483 118.451 163.709 118.651 163.848 118.909C164.058 119.289 163.988 119.579 164.058 119.599C164.128 119.619 164.348 119.339 164.198 118.769C164.102 118.422 163.886 118.121 163.588 117.919C163.388 117.783 163.164 117.688 162.927 117.64C162.69 117.592 162.445 117.591 162.208 117.639C161.637 117.788 161.113 118.082 160.688 118.491C160.262 118.901 159.949 119.413 159.778 119.979C159.242 121.24 159.028 122.615 159.158 123.979C159.418 126.819 161.038 129.389 163.108 129.859C163.495 129.946 163.895 129.946 164.282 129.858C164.668 129.77 165.029 129.596 165.338 129.349C165.788 128.909 165.848 128.589 165.798 128.569Z" fill="#EB996E"/>
<path d="M204.278 63.0088C211.448 63.0088 218.748 63.0088 227.718 67.6988C233.378 70.6988 236.898 75.3288 239.848 80.9888C242.201 85.5904 243.35 90.713 243.188 95.8788C242.928 100.759 242.908 104.169 240.958 108.649" fill="#263238"/>
<path d="M201.408 64.1186C206.448 63.7595 211.509 64.409 216.294 66.029C221.08 67.6491 225.494 70.2072 229.279 73.5538C233.064 76.9003 236.144 80.9681 238.338 85.5191C240.533 90.0701 241.797 95.013 242.058 100.059C242.978 117.729 243.788 136.839 243.598 146.459C243.178 167.119 222.488 170.169 222.488 170.169C222.488 170.169 222.948 176.289 223.488 183.889C223.729 187.519 223.239 191.161 222.048 194.599C220.857 198.037 218.989 201.202 216.553 203.905C214.118 206.609 211.166 208.797 207.871 210.34C204.575 211.883 201.004 212.749 197.368 212.889C193.796 213.025 190.231 212.456 186.879 211.214C183.527 209.971 180.452 208.08 177.831 205.649C175.21 203.217 173.094 200.293 171.604 197.043C170.114 193.793 169.28 190.281 169.148 186.709L166.078 103.449C165.704 93.5808 169.186 83.9549 175.786 76.6098C182.387 69.2648 191.587 64.7775 201.438 64.0986L201.408 64.1186Z" fill="#FFBE9D"/>
<path d="M222.488 170.168C222.488 170.168 209.788 170.828 195.988 161.998C195.988 161.998 202.238 176.998 222.858 175.338L222.488 170.168Z" fill="#EB996E"/>
<path d="M234.138 111.548C234.154 112.325 233.863 113.076 233.327 113.638C232.791 114.2 232.055 114.527 231.278 114.548C230.904 114.574 230.529 114.525 230.174 114.403C229.82 114.281 229.493 114.09 229.214 113.84C228.934 113.591 228.707 113.288 228.547 112.949C228.386 112.61 228.295 112.243 228.278 111.868C228.277 111.096 228.574 110.354 229.107 109.795C229.64 109.236 230.367 108.904 231.138 108.868C231.512 108.844 231.887 108.894 232.241 109.016C232.595 109.138 232.921 109.33 233.2 109.579C233.479 109.829 233.706 110.131 233.867 110.469C234.028 110.807 234.121 111.174 234.138 111.548Z" fill="#263238"/>
<path d="M237.008 107.368C236.638 107.748 234.418 106.078 231.238 106.058C228.058 106.038 225.728 107.618 225.388 107.228C225.218 107.048 225.598 106.358 226.618 105.628C227.997 104.683 229.637 104.194 231.308 104.228C232.959 104.23 234.565 104.763 235.888 105.748C236.858 106.498 237.188 107.198 237.008 107.368Z" fill="#263238"/>
<path d="M203.008 111.549C203.025 112.327 202.731 113.079 202.193 113.642C201.655 114.204 200.916 114.53 200.138 114.549C199.765 114.573 199.39 114.523 199.036 114.401C198.682 114.278 198.356 114.087 198.077 113.838C197.797 113.588 197.57 113.286 197.409 112.947C197.248 112.609 197.156 112.243 197.138 111.869C197.138 111.095 197.436 110.351 197.971 109.792C198.505 109.233 199.236 108.902 200.008 108.869C200.382 108.846 200.756 108.897 201.109 109.02C201.463 109.142 201.789 109.334 202.068 109.583C202.347 109.832 202.573 110.134 202.735 110.471C202.896 110.809 202.989 111.175 203.008 111.549Z" fill="#263238"/>
<path d="M205.798 107.719C205.428 108.099 203.198 106.429 200.028 106.409C196.858 106.389 194.518 107.959 194.168 107.569C194.008 107.399 194.378 106.699 195.408 105.969C196.79 105.029 198.428 104.54 200.098 104.569C201.747 104.58 203.35 105.112 204.678 106.089C205.618 106.849 205.978 107.539 205.798 107.719Z" fill="#263238"/>
<path d="M217.128 131.318C217.128 131.138 219.128 130.818 222.288 130.428C223.098 130.348 223.868 130.198 224.008 129.648C224.089 128.81 223.907 127.968 223.488 127.238C222.748 125.238 221.958 123.238 221.138 121.048C217.878 112.228 215.528 104.988 215.888 104.858C216.248 104.728 219.178 111.768 222.428 120.588C223.218 122.758 223.968 124.828 224.678 126.818C225.181 127.798 225.323 128.924 225.078 129.998C224.955 130.283 224.77 130.536 224.536 130.74C224.303 130.944 224.027 131.094 223.728 131.178C223.28 131.289 222.82 131.35 222.358 131.358C219.138 131.528 217.138 131.528 217.128 131.318Z" fill="#263238"/>
<path d="M207.768 133.468C208.288 133.468 208.258 136.888 211.188 139.358C214.118 141.828 217.798 141.478 217.818 141.958C217.818 142.178 216.988 142.628 215.438 142.658C213.417 142.662 211.46 141.954 209.908 140.658C208.422 139.414 207.473 137.644 207.258 135.718C207.138 134.318 207.528 133.448 207.768 133.468Z" fill="#263238"/>
<path d="M206.708 95.3189C206.388 96.1789 203.228 95.7489 199.498 96.1689C195.768 96.5889 192.748 97.5789 192.258 96.7989C192.048 96.4289 192.578 95.6189 193.798 94.7989C195.427 93.7902 197.264 93.1653 199.169 92.9712C201.075 92.7772 203 93.0192 204.798 93.6789C206.168 94.1889 206.848 94.8689 206.708 95.3189Z" fill="#263238"/>
<path d="M236.558 96.0689C235.998 96.7889 233.818 96.0189 231.188 95.9689C228.558 95.9189 226.328 96.4089 225.818 95.6489C225.598 95.2789 225.948 94.5589 226.928 93.8889C228.242 93.079 229.768 92.6788 231.31 92.7394C232.853 92.7999 234.342 93.3185 235.588 94.2289C236.508 94.9789 236.808 95.7189 236.558 96.0689Z" fill="#263238"/>
<path d="M166.288 109.919C166.288 109.919 167.188 114.699 167.428 116.849C167.518 117.639 167.428 126.389 169.538 126.849C171.368 127.229 174.998 125.559 176.618 121.939C178.238 118.319 181.318 109.629 180.978 105.679C180.528 100.299 180.278 94.8185 181.358 89.5185C182.438 84.2185 184.968 79.0585 189.218 75.7185C193.468 72.3785 199.618 71.2285 204.458 73.6485C207.458 75.1485 209.668 77.7985 212.458 79.6485C214.933 81.4014 217.964 82.1876 220.978 81.8585C222.474 81.6707 223.886 81.0641 225.052 80.1088C226.218 79.1534 227.09 77.888 227.568 76.4585C228.448 73.3085 226.828 69.8585 224.298 67.7685C221.768 65.6785 218.518 64.7185 215.298 64.0785C206.36 62.1592 197.061 62.811 188.478 65.9585C180.008 69.2485 172.478 75.5685 168.878 83.8985C164.698 93.5285 165.178 99.4385 166.288 109.899" fill="#263238"/>
<path d="M213.508 111.678C213.409 110.533 213.229 109.397 212.968 108.278C212.167 105.24 210.367 102.559 207.858 100.668C206.142 99.3701 204.145 98.4932 202.028 98.1081C199.597 97.6638 197.091 97.8743 194.768 98.7181C193.518 99.1644 192.344 99.8019 191.288 100.608C190.161 101.418 189.175 102.408 188.368 103.538C186.634 105.9 185.699 108.753 185.699 111.683C185.699 114.613 186.634 117.467 188.368 119.828C189.18 120.953 190.166 121.942 191.288 122.758C192.344 123.561 193.518 124.196 194.768 124.638C197.091 125.485 199.596 125.699 202.028 125.258C204.147 124.872 206.144 123.991 207.858 122.688C210.369 120.801 212.173 118.124 212.978 115.088C213.233 113.965 213.411 112.826 213.508 111.678C213.523 111.754 213.523 111.832 213.508 111.908V112.578C213.513 112.943 213.483 113.308 213.418 113.668C213.371 114.161 213.284 114.649 213.158 115.128C212.414 118.255 210.617 121.03 208.068 122.988C206.181 124.443 203.957 125.397 201.602 125.764C199.248 126.132 196.839 125.899 194.598 125.088C193.298 124.637 192.077 123.986 190.978 123.158C189.825 122.324 188.813 121.311 187.978 120.158C186.172 117.711 185.198 114.75 185.198 111.708C185.198 108.667 186.172 105.705 187.978 103.258C189.656 100.974 191.969 99.2352 194.628 98.2581C197.029 97.4012 199.613 97.1976 202.118 97.6681C204.303 98.0831 206.359 99.0082 208.118 100.368C210.665 102.324 212.462 105.095 213.208 108.218C213.334 108.7 213.421 109.192 213.468 109.688C213.533 110.044 213.563 110.406 213.558 110.768V111.438C213.528 111.608 213.518 111.678 213.508 111.678Z" fill="#263238"/>
<path d="M249.878 111.679C249.773 110.535 249.592 109.399 249.338 108.279C248.535 105.239 246.731 102.558 244.218 100.669C242.503 99.3689 240.506 98.4919 238.388 98.1086C235.96 97.6642 233.458 97.8747 231.138 98.7186C228.578 99.6618 226.352 101.338 224.738 103.539C222.998 105.898 222.059 108.752 222.059 111.684C222.059 114.615 222.998 117.47 224.738 119.829C225.547 120.954 226.529 121.943 227.648 122.759C228.706 123.564 229.884 124.198 231.138 124.639C233.457 125.485 235.959 125.699 238.388 125.259C240.507 124.872 242.504 123.992 244.218 122.689C246.729 120.801 248.533 118.125 249.338 115.089C249.593 113.965 249.773 112.826 249.878 111.679C249.883 111.755 249.883 111.832 249.878 111.909C249.878 112.089 249.878 112.309 249.878 112.579C249.882 112.944 249.855 113.308 249.798 113.669C249.747 114.162 249.657 114.65 249.528 115.129C248.792 118.258 246.993 121.036 244.438 122.989C242.679 124.347 240.623 125.268 238.438 125.679C235.931 126.159 233.34 125.956 230.938 125.089C228.274 124.124 225.961 122.382 224.298 120.089C222.486 117.644 221.508 114.682 221.508 111.639C221.508 108.596 222.486 105.633 224.298 103.189C225.132 102.035 226.144 101.022 227.298 100.189C228.399 99.3612 229.62 98.707 230.918 98.2486C233.322 97.3913 235.91 97.1877 238.418 97.6586C240.604 98.0721 242.66 98.9974 244.418 100.359C246.97 102.309 248.769 105.083 249.508 108.209C249.637 108.691 249.727 109.182 249.778 109.679C249.835 110.036 249.862 110.397 249.858 110.759C249.858 111.029 249.858 111.249 249.858 111.429C249.871 111.511 249.877 111.595 249.878 111.679Z" fill="#263238"/>
<path d="M222.128 110.178C222.128 110.258 221.618 109.998 220.828 109.738C219.796 109.391 218.706 109.249 217.618 109.318C216.543 109.398 215.492 109.676 214.518 110.139C213.768 110.509 213.348 110.829 213.298 110.759C213.248 110.689 213.598 110.288 214.298 109.818C215.284 109.225 216.397 108.875 217.545 108.798C218.693 108.722 219.843 108.921 220.898 109.378C221.768 109.758 222.168 110.138 222.128 110.178Z" fill="#263238"/>
<path d="M227.758 75.3186C227.968 74.2486 227.608 73.6486 228.218 73.2086C228.828 72.7686 230.218 74.0286 230.678 74.5486C230.838 74.7186 231.318 74.0586 231.508 73.9386C231.717 73.5099 231.839 73.0444 231.868 72.5686C231.778 71.8186 230.608 71.5686 230.058 71.1086C229.491 70.61 228.827 70.2323 228.108 69.9986C227.816 69.8538 227.49 69.7877 227.164 69.807C226.838 69.8263 226.522 69.9302 226.248 70.1086C226.086 70.3006 225.965 70.524 225.893 70.7649C225.82 71.0058 225.799 71.2589 225.828 71.5086C225.826 72.0089 225.921 72.5049 226.108 72.9686C226.297 73.4351 226.654 73.8136 227.108 74.0286" fill="#263238"/>
<path d="M165.519 98.9389C165.519 98.9389 175.648 102.649 180.918 104.889L180.619 99.7089L165.888 93.8789C165.888 93.8789 165.509 97.7289 165.519 98.9389Z" fill="#EBEBEB"/>
<path d="M166.469 90.8887C168.916 91.6468 171.312 92.5654 173.638 93.6387C176.043 94.5547 178.381 95.6339 180.638 96.8687C178.191 96.1106 175.795 95.1919 173.469 94.1187C171.064 93.2026 168.726 92.1234 166.469 90.8887Z" fill="#EBEBEB"/>
<path d="M169.518 200.008L168.738 175.498C168.738 175.498 173.608 197.928 199.118 197.638C223.488 197.358 223.048 177.878 223.048 177.878L223.918 187.758V227.668L208.018 292.778L187.708 295.318L165.268 206.318L169.518 200.008Z" fill="#0694A2"/>
<path d="M220.778 192.169C220.703 192.353 220.605 192.528 220.488 192.689C220.183 193.181 219.849 193.656 219.488 194.109C218.206 195.796 216.675 197.28 214.948 198.509C212.386 200.343 209.513 201.698 206.468 202.509C202.739 203.51 198.85 203.778 195.018 203.299C191.202 202.773 187.491 201.657 184.018 199.989C181.2 198.64 178.521 197.019 176.018 195.149C174.325 193.907 172.703 192.571 171.158 191.149C170.608 190.649 170.208 190.229 169.928 189.949C169.779 189.817 169.645 189.67 169.528 189.509C169.698 189.615 169.856 189.739 169.998 189.879L171.298 190.999C172.418 191.999 174.078 193.329 176.238 194.879C178.753 196.691 181.431 198.264 184.238 199.579C187.67 201.198 191.329 202.283 195.088 202.799C198.851 203.271 202.669 203.023 206.338 202.069C209.338 201.29 212.18 199.998 214.738 198.249C216.457 197.062 218.001 195.641 219.328 194.029C220.288 192.829 220.738 192.139 220.778 192.169Z" fill="#263238"/>
<path d="M203.078 401.428L202.708 285.728L169.848 201.318L168.748 175.908L148.748 191.048C148.748 191.048 119.618 291.318 119.128 287.858C118.638 284.398 119.128 401.428 119.128 401.428H203.078Z" fill="#EBEBEB"/>
<path d="M202.288 401.108C202.148 401.108 202.028 375.038 202.028 342.878C202.028 310.718 202.148 284.648 202.288 284.648C202.428 284.648 202.548 310.718 202.548 342.878C202.548 375.038 202.428 401.108 202.288 401.108Z" fill="#263238"/>
<path d="M149.018 207.528L153.078 210.608L150.228 229.328L198.188 279.568L154.628 222.358L158.338 207.528H149.018Z" fill="#E0E0E0"/>
<path d="M204.878 342.159L131.268 320.579L128.828 264.669L149.018 191.009C149.018 191.009 100.898 215.019 97.6184 230.319C94.3384 245.619 86.4484 282.739 85.6184 309.589C84.8684 333.589 84.7584 349.589 90.2384 357.299C105.938 379.239 209.378 383.159 250.698 357.299" fill="#EBEBEB"/>
<path d="M199.118 280.778C199.118 280.778 199.028 280.698 198.878 280.508C198.728 280.318 198.488 280.028 198.218 279.688L195.718 276.488C193.538 273.668 190.428 269.628 186.598 264.648L156.668 225.478L154.418 222.478L154.338 222.378V222.258C155.618 217.138 156.868 212.168 158.058 207.428L158.298 207.748H148.978H148.738V207.508C148.738 201.508 148.738 195.908 148.738 190.988V190.888L148.818 190.828L163.288 179.828L167.288 176.828L168.288 176.058C168.402 175.964 168.526 175.884 168.658 175.818L168.328 176.108L167.328 176.918L163.418 179.978L149.058 191.118L149.138 190.958C149.138 195.878 149.138 201.428 149.138 207.478L148.898 207.248H158.218H158.618L158.538 207.568L154.838 222.398L154.788 222.178L157.048 225.128L186.848 264.398L195.848 276.328C196.848 277.728 197.698 278.818 198.268 279.588C198.528 279.948 198.728 280.238 198.888 280.448L199.118 280.778Z" fill="#263238"/>
<path d="M231.928 186.648C226.058 176.388 223.009 177.448 223.009 177.448L223.319 181.108V188.798L220.529 221.798L202.698 293.488L203.069 401.428H270.478L278.868 269.668L278.108 212.898L231.928 186.648Z" fill="#EBEBEB"/>
<path d="M278.118 212.898C278.118 212.898 295.568 225.778 297.118 246.508C298.348 263.338 301.118 309.428 301.668 319.458C302.468 335.078 290.298 371.668 258.618 361.308C239.618 355.088 169.438 331.238 169.438 331.238L174.108 301.428L257.408 306.428L259.068 236.948L278.118 212.898Z" fill="#EBEBEB"/>
<path d="M173.118 304.858C173.118 304.858 149.538 302.308 144.118 303.628C138.868 304.898 131.398 311.318 131.398 311.318L131.508 320.628L169.438 331.238L173.118 304.858Z" fill="#FFBE9D"/>
<path d="M202.708 282.709C202.734 282.598 202.771 282.491 202.819 282.389C202.899 282.159 203.018 281.849 203.168 281.469C203.498 280.629 203.978 279.469 204.578 277.949L209.858 265.029L217.738 245.889C218.488 244.099 219.229 242.229 220.159 240.398C221.089 238.568 222.099 236.739 223.159 234.909C225.457 231.177 227.954 227.572 230.638 224.109C231.998 222.359 233.369 220.649 234.789 219.009V219.279L231.849 211.809L231.749 211.559L231.999 211.469L244.268 207.319L244.138 207.659C238.438 198.139 233.628 190.099 230.208 184.399C228.528 181.579 227.089 179.319 225.559 178.399C224.982 178.051 224.355 177.798 223.698 177.649C223.466 177.605 223.235 177.548 223.009 177.479C223.243 177.494 223.477 177.524 223.708 177.569C224.388 177.691 225.041 177.931 225.638 178.279C226.566 178.882 227.368 179.659 227.999 180.569C228.882 181.75 229.7 182.978 230.448 184.249L244.548 207.428L244.698 207.678L244.418 207.769L232.148 211.979L232.298 211.648L235.249 219.118L235.309 219.259L235.198 219.379C233.798 220.999 232.428 222.709 231.078 224.459C228.404 227.897 225.914 231.476 223.618 235.178C222.549 236.998 221.498 238.788 220.618 240.618C219.739 242.449 218.958 244.269 218.208 246.069C215.208 253.249 212.488 259.719 210.208 265.169C207.928 270.619 206.069 274.959 204.779 278.019C204.139 279.509 203.629 280.679 203.279 281.509C203.109 281.889 202.978 282.179 202.868 282.409C202.829 282.515 202.775 282.616 202.708 282.709Z" fill="#263238"/>
<path d="M287.689 355.508C287.604 355.622 287.506 355.726 287.398 355.818L286.499 356.688C285.314 357.772 284.032 358.743 282.668 359.588C280.495 360.911 278.135 361.902 275.668 362.528C272.4 363.338 269.013 363.554 265.668 363.168C263.718 362.941 261.793 362.533 259.918 361.948C257.918 361.328 255.998 360.558 253.918 359.838C249.808 358.338 245.389 356.838 240.749 355.158C231.449 351.898 221.199 348.418 210.398 344.868C188.799 337.778 169.099 331.798 154.819 327.528L137.898 322.528L133.298 321.158L132.108 320.798C131.971 320.761 131.837 320.711 131.708 320.648L132.129 320.738L133.328 321.058L137.958 322.328C141.958 323.448 147.768 325.098 154.958 327.178C169.258 331.348 188.959 337.278 210.589 344.378C221.398 347.918 231.649 351.378 240.939 354.698C245.579 356.348 249.989 357.918 254.099 359.428C256.159 360.168 258.099 360.948 260.099 361.568C261.946 362.155 263.844 362.567 265.768 362.798C269.082 363.205 272.441 363.018 275.689 362.248C278.146 361.647 280.503 360.693 282.689 359.418C284.052 358.592 285.343 357.652 286.548 356.608L287.478 355.778C287.542 355.683 287.612 355.593 287.689 355.508Z" fill="#263238"/>
<path d="M131.468 320.798C131.468 320.908 130.138 320.618 128.028 320.708C126.795 320.759 125.573 320.96 124.388 321.308C122.943 321.742 121.564 322.371 120.288 323.178C117.985 324.697 116.038 326.696 114.578 329.038C113.468 330.838 112.978 332.038 112.888 332.038C112.942 331.73 113.036 331.431 113.168 331.148C113.471 330.352 113.839 329.583 114.268 328.848C115.67 326.385 117.637 324.291 120.008 322.738C121.326 321.906 122.758 321.269 124.258 320.848C125.484 320.516 126.748 320.345 128.018 320.338C128.871 320.326 129.722 320.403 130.558 320.568C130.871 320.603 131.177 320.68 131.468 320.798Z" fill="#263238"/>
<path d="M108.278 313.498C108.278 313.498 108.278 313.398 108.368 313.228C108.488 312.99 108.643 312.77 108.828 312.578C109.542 311.879 110.46 311.424 111.448 311.278C112.879 311.043 114.338 311.043 115.768 311.278C117.518 311.509 119.238 311.928 120.898 312.528C123.934 313.595 126.707 315.3 129.028 317.528C129.72 318.21 130.353 318.949 130.918 319.738C131.138 320.018 131.323 320.324 131.468 320.648C131.378 320.718 130.558 319.438 128.778 317.798C126.431 315.699 123.692 314.084 120.718 313.048C119.096 312.467 117.422 312.042 115.718 311.778C114.332 311.528 112.916 311.488 111.518 311.658C110.588 311.765 109.709 312.14 108.988 312.738C108.488 313.168 108.318 313.518 108.278 313.498Z" fill="#263238"/>
<path d="M135.758 249.318C135.596 248.827 135.482 248.322 135.418 247.808C135.268 247.328 135.058 246.758 134.828 246.098C134.598 245.438 134.198 244.718 133.738 243.958C132.662 242.168 131.406 240.493 129.988 238.958C128.235 237.095 126.31 235.401 124.238 233.898C120.479 231.15 116.204 229.188 111.668 228.128C110.289 227.836 108.887 227.655 107.478 227.588C106.959 227.591 106.441 227.551 105.928 227.468C106.445 227.395 106.967 227.368 107.488 227.388C108.914 227.372 110.338 227.5 111.738 227.768C116.365 228.733 120.73 230.68 124.538 233.478C126.643 234.992 128.587 236.718 130.338 238.628C131.764 240.199 133.012 241.923 134.058 243.768C134.508 244.558 134.798 245.328 135.058 245.978C135.318 246.628 135.458 247.258 135.578 247.748C135.678 248.266 135.738 248.791 135.758 249.318Z" fill="#263238"/>
<path d="M275.508 334.779C275.496 334.659 275.496 334.538 275.508 334.419V333.369C275.508 332.449 275.438 331.099 275.308 329.369C274.946 324.454 273.937 319.609 272.308 314.959C271.819 313.418 271.147 311.941 270.308 310.559C269.373 309.087 268.013 307.932 266.408 307.249C263.058 305.809 259.028 305.999 254.928 305.769L228.088 304.639C205.908 303.639 186.178 302.839 173.778 302.179L173.948 302.039C173.198 306.599 172.598 310.209 172.188 312.719C171.978 313.929 171.818 314.869 171.698 315.539C171.648 315.839 171.598 316.079 171.568 316.269L171.508 316.509C171.499 316.426 171.499 316.342 171.508 316.259L171.608 315.529C171.698 314.859 171.838 313.909 172.008 312.689C172.388 310.179 172.928 306.559 173.618 301.989V301.849H173.768L228.078 304.109L254.918 305.319C256.978 305.419 258.988 305.469 260.918 305.629C262.842 305.736 264.734 306.161 266.518 306.889C268.199 307.594 269.627 308.789 270.618 310.319C271.465 311.732 272.136 313.243 272.618 314.819C274.225 319.499 275.181 324.378 275.458 329.319C275.568 331.059 275.568 332.419 275.558 333.319C275.558 333.759 275.558 334.109 275.558 334.369C275.518 334.649 275.508 334.779 275.508 334.779Z" fill="#263238"/>
<path d="M259.618 269.559C259.758 269.559 259.878 277.629 259.878 287.559C259.878 297.489 259.758 305.559 259.618 305.559C259.478 305.559 259.358 297.489 259.358 287.559C259.358 277.629 259.478 269.559 259.618 269.559Z" fill="#263238"/>
<path d="M98.1984 228.488C98.1984 228.488 98.1384 228.718 97.9984 229.148C97.8584 229.578 97.6084 230.228 97.3984 231.148C96.9084 232.878 96.2884 235.458 95.5984 238.828C94.2084 245.568 92.4984 255.428 90.5984 267.768C89.6484 273.948 88.5984 280.768 87.5984 288.078C87.0884 291.748 86.7684 295.568 86.5084 299.528C86.2484 303.488 86.0384 307.528 85.8784 311.768C85.5784 320.178 85.3984 329.058 85.6384 338.308C85.7184 340.618 85.7984 342.958 85.9884 345.308C86.0484 346.488 86.2484 347.648 86.3884 348.818C86.602 349.988 86.8858 351.143 87.2384 352.278C87.95 354.573 89.0752 356.718 90.5584 358.608C92.0458 360.53 94.0015 362.038 96.2384 362.988C100.999 365.323 105.963 367.218 111.068 368.648C116.238 370.198 121.578 371.448 126.998 372.558C138.792 374.993 150.766 376.451 162.798 376.918C168.499 377.065 174.203 376.918 179.888 376.478C185.458 376.088 190.888 375.478 196.138 374.728C206.038 373.325 215.795 371.057 225.298 367.948C233.436 365.261 241.325 361.875 248.878 357.828V358.158L216.618 346.688L207.908 343.578L205.658 342.758C205.148 342.568 204.898 342.458 204.898 342.458L205.668 342.708L207.938 343.478L216.678 346.478L249.078 357.778L249.468 357.908L249.108 358.108C241.541 362.187 233.635 365.603 225.478 368.318C215.955 371.455 206.174 373.748 196.248 375.168C190.988 375.958 185.548 376.548 179.968 376.938C174.267 377.385 168.546 377.538 162.828 377.398C150.765 376.938 138.761 375.479 126.938 373.038C121.498 371.918 116.148 370.668 110.938 369.118C105.803 367.669 100.809 365.758 96.0184 363.408C93.688 362.428 91.6492 360.865 90.0984 358.868C88.5818 356.926 87.4329 354.723 86.7084 352.368C86.3457 351.214 86.0551 350.039 85.8384 348.848C85.6884 347.648 85.4984 346.468 85.4384 345.288C85.2484 342.928 85.1684 340.578 85.0984 338.288C84.8584 329.008 85.0984 320.128 85.3784 311.708C85.5384 307.508 85.7551 303.425 86.0284 299.458C86.2984 295.458 86.6284 291.658 87.1484 287.988C88.1484 280.638 89.2084 273.848 90.1484 267.678C92.1484 255.338 93.8884 245.488 95.3384 238.758C96.0584 235.388 96.6984 232.808 97.2184 231.078C97.4384 230.208 97.7184 229.568 97.8584 229.138C97.9984 228.708 98.1984 228.488 98.1984 228.488Z" fill="#263238"/>
<path d="M131.358 313.889C143.668 300.259 143.128 276.029 136.058 258.839C135.408 277.459 133.208 293.979 131.528 312.079" fill="#E0E0E0"/>
<path d="M136.088 262.318C136.11 262.518 136.11 262.719 136.088 262.918C136.088 263.368 136.028 263.918 135.978 264.618C135.858 266.168 135.698 268.288 135.488 270.868C135.048 276.208 134.488 283.458 133.798 291.478L132.178 312.098C131.988 314.678 131.828 316.798 131.708 318.348L131.558 320.038C131.546 320.237 131.52 320.434 131.478 320.628C131.449 320.433 131.449 320.234 131.478 320.038C131.478 319.588 131.478 319.038 131.528 318.328C131.578 316.848 131.688 314.708 131.828 312.068C132.138 306.788 132.638 299.488 133.298 291.438C133.958 283.388 134.618 276.108 135.148 270.838C135.418 268.258 135.638 266.148 135.798 264.598C135.888 263.908 135.958 263.348 136.008 262.908C136.008 262.709 136.035 262.51 136.088 262.318Z" fill="#263238"/>
<path d="M166.428 237.698C166.692 241.215 166.779 244.743 166.688 248.268C166.779 251.794 166.692 255.321 166.428 258.838C166.288 258.838 166.168 254.098 166.168 248.268C166.168 242.438 166.288 237.698 166.428 237.698Z" fill="#263238"/>
<path d="M158.408 272.808C158.618 274.853 159.405 276.795 160.678 278.408C161.838 279.918 164.188 281.408 166.078 281.278C167.502 281.351 168.921 281.053 170.195 280.413C171.47 279.773 172.556 278.814 173.348 277.628C175.648 273.968 176.218 266.338 174.348 261.828C173.078 258.728 170.228 255.828 166.878 255.758C162.478 255.658 159.718 258.838 158.778 262.058" fill="#E0E0E0"/>
<path d="M158.798 262.059C158.944 261.298 159.218 260.568 159.608 259.899C160.044 259.095 160.6 258.363 161.258 257.729C162.14 256.884 163.209 256.26 164.378 255.909C165.056 255.701 165.76 255.587 166.468 255.569C167.244 255.527 168.02 255.628 168.758 255.869C170.369 256.439 171.784 257.455 172.838 258.799C174.028 260.25 174.854 261.964 175.248 263.799C175.664 265.746 175.812 267.741 175.688 269.729C175.488 272.859 174.868 275.979 173.138 278.359C172.278 279.477 171.131 280.341 169.818 280.859C168.625 281.337 167.343 281.552 166.058 281.489C165.121 281.497 164.196 281.27 163.368 280.829C162.64 280.448 161.968 279.971 161.368 279.409C160.427 278.47 159.679 277.356 159.168 276.129C158.826 275.354 158.59 274.537 158.468 273.699C158.435 273.48 158.415 273.26 158.408 273.039C158.395 272.963 158.395 272.885 158.408 272.809C158.612 273.918 158.948 274.999 159.408 276.029C159.943 277.204 160.696 278.266 161.628 279.159C162.232 279.688 162.905 280.132 163.628 280.479C164.401 280.878 165.259 281.08 166.128 281.069C167.395 281.132 168.659 280.893 169.815 280.371C170.972 279.849 171.987 279.06 172.778 278.069C174.388 275.839 175.008 272.769 175.198 269.709C175.418 265.709 174.748 261.769 172.498 259.109C171.492 257.833 170.148 256.867 168.618 256.319C167.926 256.09 167.198 255.985 166.468 256.009C165.792 256.016 165.119 256.114 164.468 256.299C163.351 256.621 162.323 257.2 161.468 257.989C160.815 258.587 160.252 259.278 159.798 260.039C159.427 260.693 159.094 261.367 158.798 262.059Z" fill="#263238"/>
<path d="M156.068 273.008C156.279 275.052 157.067 276.994 158.338 278.608C159.488 280.118 161.848 281.608 163.738 281.478C165.162 281.55 166.58 281.251 167.854 280.612C169.129 279.972 170.215 279.013 171.008 277.828C173.308 274.158 173.878 266.538 172.008 262.028C170.738 258.918 167.888 256.028 164.538 255.958C162.677 255.942 160.866 256.555 159.396 257.696C157.926 258.838 156.884 260.441 156.438 262.248" fill="#E0E0E0"/>
<path d="M156.458 262.249C156.605 261.491 156.879 260.764 157.268 260.099C157.704 259.295 158.26 258.563 158.918 257.929C160.32 256.577 162.181 255.806 164.128 255.769C164.904 255.727 165.68 255.829 166.418 256.069C168.029 256.638 169.444 257.655 170.498 258.999C171.689 260.448 172.512 262.163 172.898 263.999C173.322 265.945 173.473 267.941 173.348 269.929C173.148 273.059 172.528 276.169 170.798 278.559C169.938 279.677 168.791 280.541 167.478 281.059C166.285 281.537 165.002 281.752 163.718 281.689C162.78 281.694 161.855 281.464 161.028 281.019C160.299 280.645 159.625 280.171 159.028 279.609C158.081 278.671 157.333 277.552 156.828 276.319C156.486 275.548 156.251 274.734 156.128 273.899C156.128 273.609 156.068 273.389 156.058 273.239C156.048 273.163 156.048 273.085 156.058 273.009C156.263 274.115 156.599 275.192 157.058 276.219C157.586 277.4 158.34 278.467 159.278 279.359C159.882 279.888 160.555 280.332 161.278 280.679C162.052 281.073 162.91 281.275 163.778 281.269C165.044 281.33 166.305 281.09 167.46 280.569C168.614 280.047 169.628 279.259 170.418 278.269C172.038 276.029 172.658 272.969 172.848 269.909C173.068 265.909 172.398 261.969 170.148 259.309C169.158 258.023 167.823 257.045 166.298 256.489C165.609 256.26 164.884 256.155 164.158 256.179C162.302 256.207 160.522 256.919 159.158 258.179C158.505 258.777 157.942 259.468 157.488 260.229C157.103 260.88 156.759 261.555 156.458 262.249Z" fill="#263238"/>
<path d="M160.318 261.129C159.209 260.988 158.084 261.214 157.114 261.771C156.145 262.329 155.384 263.189 154.948 264.219C154.118 266.316 154.118 268.651 154.948 270.749C155.292 271.835 155.861 272.837 156.618 273.689C157.39 274.547 158.467 275.067 159.618 275.139C160.452 275.092 161.262 274.846 161.98 274.421C162.699 273.997 163.305 273.406 163.748 272.699C164.522 271.597 165.049 270.342 165.292 269.018C165.536 267.694 165.49 266.333 165.158 265.029C164.698 263.289 163.418 261.519 161.628 261.469" fill="#E0E0E0"/>
<path d="M161.619 261.469C161.619 261.469 161.759 261.469 162.019 261.469C162.404 261.513 162.776 261.639 163.109 261.839C163.698 262.232 164.203 262.738 164.595 263.329C164.986 263.92 165.256 264.582 165.389 265.279C165.876 267.33 165.658 269.487 164.769 271.399C164.27 272.545 163.501 273.553 162.529 274.339C162.006 274.79 161.382 275.109 160.711 275.271C160.04 275.433 159.34 275.432 158.669 275.269C157.358 274.851 156.257 273.95 155.589 272.749C154.975 271.673 154.543 270.504 154.309 269.289C154.058 268.273 154.018 267.217 154.19 266.186C154.362 265.154 154.743 264.168 155.309 263.289C155.714 262.708 156.23 262.213 156.827 261.832C157.424 261.451 158.091 261.191 158.789 261.069C159.17 261.012 159.557 261.012 159.939 261.069C160.189 261.119 160.319 261.159 160.319 261.179C159.82 261.161 159.321 261.192 158.829 261.269C157.51 261.575 156.358 262.372 155.609 263.499C155.091 264.348 154.75 265.294 154.607 266.279C154.465 267.264 154.523 268.267 154.779 269.229C155.012 270.386 155.434 271.498 156.029 272.519C156.632 273.604 157.626 274.419 158.809 274.799C159.401 274.943 160.02 274.945 160.613 274.802C161.206 274.659 161.757 274.377 162.219 273.979C163.126 273.24 163.851 272.302 164.339 271.239C165.204 269.421 165.447 267.368 165.029 265.399C164.818 264.066 164.102 262.866 163.029 262.049C162.599 261.77 162.12 261.573 161.619 261.469Z" fill="#263238"/>
<path d="M165.358 277.568C165.278 277.568 165.168 277.248 164.828 276.848C164.37 276.334 163.778 275.956 163.118 275.758C162.435 275.562 161.729 275.451 161.018 275.428C160.468 275.428 160.108 275.338 160.108 275.268C160.108 275.198 160.448 275.118 161.018 275.058C161.778 274.978 162.545 275.045 163.278 275.258C164.042 275.478 164.7 275.969 165.128 276.638C165.438 277.158 165.418 277.558 165.358 277.568Z" fill="#263238"/>
<path d="M166.148 259.769C166.148 259.769 165.988 260.119 165.528 260.489C164.91 260.961 164.186 261.277 163.418 261.409C162.653 261.548 161.865 261.507 161.118 261.289C160.558 261.099 160.258 260.879 160.288 260.819C161.281 260.973 162.289 261 163.288 260.899C164.285 260.641 165.245 260.262 166.148 259.769Z" fill="#263238"/>
<path d="M234.858 188.139C234.858 188.139 234.978 188.139 235.188 188.259C235.494 188.395 235.791 188.548 236.078 188.719C237.151 189.325 238.156 190.042 239.078 190.859C242.153 193.567 244.388 197.1 245.518 201.039C246.702 204.907 247.522 208.878 247.968 212.899C248.148 214.439 248.238 215.689 248.298 216.549C248.349 216.997 248.349 217.45 248.298 217.899C248.186 217.463 248.112 217.018 248.078 216.569C247.948 215.619 247.778 214.399 247.588 212.949C247.035 208.967 246.169 205.035 244.998 201.189C243.886 197.338 241.75 193.861 238.818 191.129C237.574 190.036 236.25 189.036 234.858 188.139Z" fill="#263238"/>
<path d="M222.398 298.209C225.298 298.099 227.618 295.209 230.518 295.369C231.044 295.413 231.555 295.561 232.023 295.803C232.491 296.046 232.907 296.378 233.247 296.781C233.587 297.184 233.844 297.65 234.004 298.152C234.164 298.654 234.223 299.183 234.178 299.709C234.134 300.234 233.986 300.745 233.744 301.214C233.501 301.682 233.169 302.098 232.766 302.438C232.363 302.777 231.897 303.035 231.395 303.194C230.893 303.354 230.364 303.413 229.838 303.369C226.788 303.019 225.008 299.449 222.028 298.769" fill="#263238"/>
<path d="M246.978 300.678C246.071 300.677 245.164 300.603 244.268 300.458L244.428 299.458C248.008 300.028 251.018 299.458 253.368 297.708C256.368 295.538 258.238 291.648 259.038 286.148V285.938C259.368 283.758 259.818 240.988 259.818 232.868C259.818 220.178 248.688 218.448 248.208 218.378C247.728 218.308 237.638 216.608 232.268 230.458C226.648 244.968 217.658 272.928 217.068 276.208C216.988 276.608 216.878 277.108 216.758 277.678C215.818 281.878 213.878 290.608 219.698 295.628C226.188 301.238 231.308 299.068 231.518 298.978L231.928 299.888C231.688 299.988 226.048 302.438 219.048 296.388C212.768 290.968 214.798 281.848 215.778 277.458C215.908 276.898 216.008 276.458 216.078 276.028C216.678 272.728 225.698 244.648 231.338 230.098C236.978 215.548 248.258 217.368 248.338 217.398C248.418 217.428 260.778 219.298 260.778 232.868C260.778 239.558 260.338 283.768 259.988 286.088V286.288C259.148 292.068 257.108 296.178 253.918 298.518C251.899 299.969 249.464 300.727 246.978 300.678Z" fill="#263238"/>
<path d="M260.348 241.058C259.905 239.298 259.204 237.613 258.268 236.058C257.204 234.417 255.869 232.97 254.318 231.778C252.41 230.337 250.219 229.315 247.888 228.778C243.608 227.836 239.134 228.42 235.238 230.428C233.647 231.298 232.167 232.355 230.828 233.578C230.892 233.469 230.969 233.368 231.058 233.278C231.287 232.992 231.538 232.725 231.808 232.478C232.78 231.546 233.874 230.749 235.058 230.108C239.009 227.945 243.611 227.292 248.008 228.268C250.41 228.835 252.661 229.913 254.608 231.428C256.202 232.663 257.558 234.178 258.608 235.898C259.312 237.051 259.831 238.306 260.148 239.618C260.243 239.973 260.313 240.334 260.358 240.698C260.358 240.918 260.368 241.058 260.348 241.058Z" fill="#263238"/>
<path d="M285.818 320.999C285.449 319.551 284.988 318.128 284.438 316.739C283.017 313.424 280.661 310.596 277.658 308.599C275.977 307.571 274.107 306.891 272.158 306.599C270.551 306.349 268.933 306.182 267.308 306.099L264.018 305.869C263.614 305.858 263.212 305.804 262.818 305.709C263.22 305.66 263.627 305.66 264.028 305.709L267.328 305.769C268.968 305.805 270.604 305.939 272.228 306.169C274.25 306.432 276.194 307.113 277.938 308.169C281.029 310.215 283.417 313.161 284.778 316.609C285.195 317.637 285.503 318.706 285.698 319.799C285.791 320.192 285.832 320.595 285.818 320.999Z" fill="#263238"/>
<path d="M235.368 304.319C235.368 304.319 245.208 289.429 247.718 287.479C250.228 285.529 271.718 275.829 274.208 277.389C276.698 278.949 275.208 282.329 275.208 282.329C275.208 282.329 284.288 279.149 285.258 280.399C285.78 281.15 286.06 282.044 286.06 282.959C286.06 283.874 285.78 284.767 285.258 285.519C285.258 285.519 290.258 284.749 290.258 286.299C290.238 287.34 289.964 288.36 289.458 289.27C288.952 290.18 288.232 290.952 287.358 291.519C285.038 293.259 269.948 303.299 268.738 306.079L263.848 305.779L235.368 304.319Z" fill="#FFBE9D"/>
<path d="M263.668 300.049C263.779 299.718 263.931 299.403 264.118 299.109C264.597 298.295 265.139 297.519 265.738 296.789C267.749 294.391 270.162 292.36 272.868 290.789C275.561 289.214 278.385 287.876 281.308 286.789C282.418 286.359 283.308 286.039 283.958 285.789C284.279 285.656 284.615 285.562 284.958 285.509C284.672 285.707 284.359 285.866 284.028 285.979L281.438 287.089C278.583 288.257 275.81 289.617 273.138 291.159C270.48 292.71 268.079 294.663 266.018 296.949C264.458 298.799 263.758 300.099 263.668 300.049Z" fill="#EB996E"/>
<path d="M251.198 299.809C251.315 299.428 251.476 299.062 251.678 298.719C252.018 298.029 252.509 297.039 253.189 295.839C253.973 294.429 254.88 293.09 255.898 291.839C256.503 291.078 257.194 290.39 257.958 289.789C258.788 289.229 259.659 288.709 260.569 288.169C263.644 286.336 266.853 284.738 270.168 283.389C271.173 282.991 272.202 282.657 273.249 282.389C273.633 282.278 274.029 282.207 274.428 282.179C274.428 282.269 272.799 282.649 270.309 283.769C267.055 285.211 263.889 286.844 260.828 288.659C259.928 289.189 259.059 289.719 258.249 290.249C257.512 290.816 256.841 291.463 256.249 292.179C255.223 293.401 254.3 294.705 253.488 296.079L251.828 298.859C251.653 299.197 251.442 299.516 251.198 299.809Z" fill="#EB996E"/>
<path d="M433.035 136.147C428.915 146.447 422.335 163.097 419.305 170.747C418.879 171.831 418.9 173.039 419.363 174.107C419.826 175.176 420.693 176.017 421.776 176.447L449.915 187.657C450.452 187.871 451.025 187.978 451.603 187.97C452.18 187.962 452.751 187.84 453.281 187.612C453.811 187.383 454.292 187.052 454.694 186.638C455.096 186.224 455.413 185.734 455.625 185.197L469.276 150.877C469.751 149.685 469.988 148.412 469.971 147.129C469.954 145.846 469.684 144.578 469.177 143.4C468.67 142.221 467.935 141.154 467.015 140.26C466.095 139.365 465.008 138.661 463.816 138.187L465.816 133.187L447.396 125.877L445.495 130.617H445.425C443.046 129.752 440.424 129.845 438.112 130.877C435.801 131.909 433.98 133.798 433.035 136.147Z" fill="#F5F5F5"/>
<path d="M447.146 126.487L446.235 128.777L464.396 136.777L465.576 133.827L447.146 126.487Z" fill="#E0E0E0"/>
<path d="M450.839 119.107L468.016 125.949C468.755 126.244 469.347 126.82 469.661 127.55C469.976 128.281 469.987 129.107 469.693 129.846L467.872 134.417C467.683 134.893 467.312 135.273 466.842 135.476C466.372 135.678 465.84 135.685 465.365 135.496L446.209 127.865C445.733 127.675 445.352 127.305 445.15 126.835C444.948 126.365 444.941 125.833 445.13 125.358L446.951 120.787C447.245 120.048 447.821 119.456 448.552 119.141C449.283 118.827 450.109 118.816 450.848 119.11L450.839 119.107Z" fill="#EBEBEB"/>
<path d="M447.336 128.307C447.697 126.71 448.223 125.155 448.906 123.667C449.438 122.114 450.128 120.619 450.966 119.207C450.605 120.814 450.079 122.379 449.396 123.877C448.873 125.425 448.182 126.91 447.336 128.307Z" fill="#E0E0E0"/>
<path d="M449.766 129.277C450.127 127.677 450.653 126.119 451.336 124.627C451.857 123.072 452.547 121.58 453.396 120.177C453.034 121.777 452.508 123.335 451.826 124.827C451.304 126.381 450.614 127.874 449.766 129.277Z" fill="#E0E0E0"/>
<path d="M452.196 130.247C452.556 128.646 453.082 127.088 453.766 125.597C454.288 124.04 454.979 122.544 455.826 121.137C455.467 122.738 454.941 124.296 454.256 125.787C453.723 127.34 453.033 128.834 452.196 130.247Z" fill="#E0E0E0"/>
<path d="M454.625 131.216C454.979 129.614 455.505 128.055 456.195 126.566C456.718 125.009 457.409 123.514 458.255 122.106C457.893 123.707 457.363 125.266 456.675 126.756C456.146 128.309 455.459 129.804 454.625 131.216Z" fill="#E0E0E0"/>
<path d="M457.056 132.177C457.412 130.576 457.938 129.017 458.626 127.527C459.135 125.978 459.805 124.487 460.626 123.077C460.27 124.679 459.743 126.238 459.056 127.727C458.546 129.276 457.876 130.768 457.056 132.177Z" fill="#E0E0E0"/>
<path d="M459.495 133.147C459.858 131.546 460.388 129.988 461.076 128.497C461.605 126.944 462.292 125.45 463.125 124.037C462.772 125.639 462.246 127.199 461.555 128.687C461.033 130.244 460.342 131.74 459.495 133.147Z" fill="#E0E0E0"/>
<path d="M461.906 134.117C462.264 132.516 462.79 130.957 463.476 129.467C464.008 127.914 464.698 126.419 465.536 125.007C465.175 126.607 464.649 128.166 463.966 129.657C463.443 131.214 462.752 132.709 461.906 134.117Z" fill="#E0E0E0"/>
<path d="M464.336 135.077C464.697 133.48 465.223 131.925 465.906 130.437C466.428 128.879 467.119 127.384 467.966 125.977C467.604 127.576 467.078 129.135 466.396 130.627C465.869 132.179 465.179 133.671 464.336 135.077Z" fill="#E0E0E0"/>
<path d="M461.206 153.159L437.553 143.737C436.794 143.435 435.933 143.805 435.631 144.564L429.769 159.28C429.466 160.039 429.836 160.9 430.596 161.202L454.248 170.624C455.008 170.927 455.868 170.557 456.171 169.797L462.033 155.082C462.335 154.322 461.965 153.462 461.206 153.159Z" fill="#EBEBEB"/>
<path d="M454.356 169.237C454.383 169.135 454.417 169.035 454.456 168.937L454.756 168.117L455.926 165.027C456.926 162.357 458.426 158.587 460.206 154.027L460.316 154.297L437.156 145.127C437.086 145.127 437.796 144.857 437.496 144.987V145.047L437.446 145.177L437.346 145.427L437.146 145.927L436.746 146.927C436.476 147.587 436.216 148.247 435.956 148.927C435.436 150.237 434.956 151.527 434.406 152.797L431.486 160.087L431.356 159.777L447.916 166.497L452.676 168.497L453.956 169.037C454.109 169.099 454.259 169.169 454.406 169.247L453.986 169.107L452.736 168.637L447.976 166.817L431.176 160.247L430.956 160.167L431.046 159.937C431.966 157.617 432.926 155.177 433.936 152.637C434.436 151.367 434.936 150.077 435.476 148.767C435.736 148.107 435.996 147.447 436.266 146.767L436.656 145.767L436.866 145.267L436.966 145.017L437.016 144.887V144.827L437.366 144.677L460.496 153.877L460.686 153.957L460.606 154.147C458.726 158.747 457.176 162.527 456.086 165.217L454.826 168.217L454.496 168.987C454.416 169.167 454.369 169.25 454.356 169.237Z" fill="#E0E0E0"/>
<path d="M454.856 157.557C452.133 156.756 449.461 155.791 446.856 154.667C444.199 153.703 441.604 152.578 439.086 151.297C441.81 152.093 444.482 153.058 447.086 154.187C449.742 155.151 452.337 156.276 454.856 157.557Z" fill="#E0E0E0"/>
<path d="M453.795 160.227C451.071 159.433 448.399 158.467 445.795 157.337C443.141 156.369 440.546 155.243 438.026 153.967C440.749 154.765 443.421 155.73 446.026 156.857C448.681 157.823 451.276 158.948 453.795 160.227Z" fill="#E0E0E0"/>
<path d="M452.776 162.797C450.05 162.005 447.378 161.039 444.776 159.907C442.12 158.941 439.525 157.816 437.005 156.537C439.73 157.331 442.402 158.297 445.005 159.427C447.66 160.395 450.255 161.521 452.776 162.797Z" fill="#E0E0E0"/>
<path d="M462.826 137.646C459.878 136.755 456.983 135.697 454.156 134.476C451.26 133.415 448.426 132.193 445.666 130.816C448.618 131.703 451.516 132.762 454.346 133.986C457.238 135.047 460.07 136.269 462.826 137.646Z" fill="#E0E0E0"/>
<path d="M421.615 169.367C421.76 168.8 421.947 168.245 422.175 167.707C422.605 166.577 423.175 165.077 423.875 163.257C425.325 159.507 427.365 154.347 429.655 148.657C430.805 145.817 431.895 143.107 432.905 140.657C433.687 138.399 434.93 136.328 436.555 134.577C437.705 133.42 439.194 132.66 440.805 132.407C441.241 132.357 441.68 132.357 442.115 132.407C442.266 132.423 442.414 132.46 442.555 132.517C441.98 132.507 441.406 132.541 440.836 132.617C439.309 132.943 437.915 133.719 436.836 134.847C435.284 136.591 434.104 138.632 433.365 140.847C432.365 143.327 431.295 146.037 430.155 148.847C427.875 154.537 425.775 159.687 424.235 163.397L422.385 167.777C422.175 168.328 421.917 168.86 421.615 169.367Z" fill="white"/>
<path d="M453.235 187.457C452.839 187.199 452.471 186.901 452.135 186.567C451.795 186.257 451.365 185.897 450.855 185.497C450.345 185.097 449.795 184.607 449.125 184.137C447.599 182.991 446.006 181.936 444.355 180.977C442.329 179.835 440.228 178.833 438.065 177.977C435.892 177.124 433.664 176.419 431.396 175.867C429.54 175.423 427.66 175.09 425.766 174.867C424.956 174.747 424.216 174.717 423.576 174.657C422.936 174.597 422.365 174.577 421.915 174.567C421.44 174.57 420.965 174.533 420.495 174.457C420.964 174.376 421.44 174.342 421.915 174.357C422.375 174.357 422.916 174.357 423.586 174.357C424.256 174.357 424.985 174.357 425.795 174.487C427.716 174.655 429.623 174.949 431.505 175.367C433.806 175.902 436.065 176.6 438.266 177.457C440.452 178.345 442.571 179.391 444.605 180.587C446.258 181.577 447.844 182.673 449.355 183.867C450.005 184.357 450.555 184.867 451.045 185.297C451.472 185.656 451.879 186.036 452.266 186.437C452.62 186.746 452.944 187.088 453.235 187.457Z" fill="white"/>
<path d="M435.28 9.99219H428.68V39.5822H435.28V9.99219Z" fill="#0694A2"/>
<path d="M417.18 21.482V28.082L446.77 28.082V21.482H417.18Z" fill="#0694A2"/>
<path d="M456.55 24.8618C456.525 24.7296 456.509 24.596 456.5 24.4618C456.5 24.1718 456.45 23.7818 456.42 23.2918C456.42 23.0318 456.42 22.7418 456.36 22.4318C456.3 22.1218 456.26 21.7718 456.2 21.4318C456.089 20.5735 455.915 19.7246 455.68 18.8918C455.101 16.5927 454.177 14.3944 452.94 12.3718C450.025 7.48506 445.496 3.76904 440.134 1.8649C434.772 -0.0392448 428.914 -0.0120578 423.57 1.94177C422.475 2.33342 421.409 2.80123 420.38 3.34177C419.337 3.91504 418.334 4.55991 417.38 5.27177C416.406 5.99383 415.481 6.77884 414.61 7.62177C413.753 8.51201 412.954 9.45736 412.22 10.4518C410.706 12.4917 409.528 14.7603 408.73 17.1718C407.05 22.1711 407.05 27.5824 408.73 32.5818C409.526 34.9942 410.704 37.2631 412.22 39.3018C412.949 40.3002 413.748 41.2459 414.61 42.1318C415.478 42.9807 416.404 43.7692 417.38 44.4918C418.334 45.2036 419.337 45.8485 420.38 46.4218C421.411 46.9582 422.477 47.4259 423.57 47.8218C428.914 49.7607 434.766 49.7814 440.124 47.8805C445.482 45.9796 450.013 42.2753 452.94 37.4018C454.179 35.3766 455.103 33.1747 455.68 30.8718C455.916 30.0426 456.09 29.1969 456.2 28.3418C456.26 27.9618 456.33 27.6218 456.36 27.3418C456.39 27.0618 456.36 26.7418 456.42 26.4818C456.42 25.9818 456.48 25.6018 456.5 25.3118C456.508 25.1775 456.524 25.0438 456.55 24.9118C456.561 25.0449 456.561 25.1787 456.55 25.3118C456.55 25.6018 456.55 25.9918 456.55 26.4818V27.3518C456.55 27.6718 456.46 28.0118 456.42 28.3518C456.321 29.2153 456.16 30.0708 455.94 30.9118C455.386 33.2459 454.479 35.4818 453.25 37.5418C451.447 40.5856 449.014 43.2094 446.115 45.2374C443.216 47.2655 439.918 48.6512 436.44 49.3018C432.09 50.1082 427.604 49.7458 423.44 48.2518C422.327 47.8492 421.241 47.3749 420.19 46.8318C418.041 45.6478 416.06 44.1814 414.3 42.4718C413.421 41.5697 412.605 40.6073 411.86 39.5918C410.304 37.5112 409.098 35.1907 408.29 32.7218C407.466 30.1784 407.031 27.5251 407 24.8518C407.037 22.1822 407.471 19.533 408.29 16.9918C409.103 14.5277 410.308 12.2112 411.86 10.1318C412.608 9.11497 413.423 8.14948 414.3 7.24177C415.191 6.38535 416.136 5.58704 417.13 4.85177C419.873 2.82862 423.002 1.39131 426.324 0.629208C429.646 -0.132897 433.09 -0.203501 436.44 0.421773C439.901 1.08669 443.18 2.48 446.061 4.50925C448.942 6.5385 451.358 9.15727 453.15 12.1918C454.377 14.2492 455.284 16.4814 455.84 18.8118C456.059 19.6563 456.22 20.515 456.32 21.3818C456.32 21.7518 456.43 22.1018 456.45 22.3818V23.2418C456.45 23.7418 456.45 24.1318 456.45 24.4218C456.497 24.5651 456.53 24.7124 456.55 24.8618Z" fill="#0694A2"/>
<path d="M79.6011 73.045L2.1716 110.309C0.97226 110.887 0.467917 112.327 1.04512 113.526L53.0192 221.52C53.5964 222.72 55.0365 223.224 56.2359 222.647L133.665 185.382C134.865 184.805 135.369 183.365 134.792 182.166L82.8179 74.1715C82.2407 72.9722 80.8005 72.4678 79.6011 73.045Z" fill="#E0E0E0"/>
<path d="M78.3675 76.5872L5.72266 111.549L56.0445 216.11L128.689 181.148L78.3675 76.5872Z" fill="#FAFAFA"/>
<path d="M57.5791 88.5388C56.1283 87.4154 54.3928 86.7191 52.5678 86.5283C50.7429 86.3376 48.9009 86.6598 47.2491 87.4588L45.0191 83.0688C44.2414 81.4592 42.8586 80.2225 41.1725 79.6287C39.4864 79.0348 37.6339 79.1319 36.0191 79.8988C35.2154 80.2848 34.4958 80.8255 33.9013 81.49C33.3069 82.1545 32.8493 82.9297 32.5549 83.7712C32.2604 84.6128 32.1349 85.5042 32.1853 86.3943C32.2358 87.2844 32.4614 88.1559 32.8491 88.9588L35.0791 93.5888L33.5291 94.3688C31.9115 95.1813 30.5479 96.4221 29.5869 97.9562C28.6259 99.4903 28.1043 101.259 28.0791 103.069V105.369L59.7091 90.1488L57.5791 88.5388ZM40.6991 89.2588C40.0485 89.5703 39.3202 89.6821 38.6061 89.58C37.892 89.4779 37.2241 89.1665 36.6869 88.6851C36.1497 88.2038 35.7671 87.574 35.5875 86.8753C35.408 86.1767 35.4395 85.4405 35.678 84.7597C35.9166 84.0789 36.3515 83.4841 36.9278 83.0504C37.5042 82.6166 38.1962 82.3633 38.9164 82.3226C39.6366 82.2818 40.3527 82.4554 40.9744 82.8213C41.596 83.1873 42.0953 83.7292 42.4091 84.3788C42.6181 84.8113 42.7397 85.2809 42.7668 85.7605C42.794 86.2401 42.7262 86.7204 42.5673 87.1738C42.4084 87.6272 42.1616 88.0447 41.841 88.4025C41.5204 88.7603 41.1324 89.0513 40.6991 89.2588Z" fill="#EBEBEB"/>
<path d="M39.779 113.399C39.849 113.529 35.489 115.759 30.049 118.399C24.609 121.039 20.149 123.029 20.049 122.899C19.949 122.769 24.339 120.539 29.779 117.899C35.219 115.259 39.719 113.269 39.779 113.399Z" fill="#E0E0E0"/>
<path d="M31.1792 121.629C29.7227 122.619 28.1718 123.464 26.5492 124.149C24.9996 124.975 23.3715 125.645 21.6892 126.149C23.1582 125.175 24.719 124.348 26.3492 123.679C27.8913 122.845 29.5084 122.159 31.1792 121.629Z" fill="#E0E0E0"/>
<path d="M81.9091 108.618C81.9691 108.738 69.7491 114.758 54.6091 122.038C39.4691 129.318 27.1491 135.128 27.0891 135.038C27.0291 134.948 39.2491 128.858 54.3491 121.568C69.4491 114.278 81.8491 108.488 81.9091 108.618Z" fill="#E0E0E0"/>
<path d="M84.4291 113.838C84.4891 113.968 72.2691 119.978 57.1291 127.268C41.9891 134.558 29.6691 140.358 29.6091 140.268C29.5491 140.178 41.7591 134.128 56.9091 126.838C72.0591 119.548 84.3491 113.708 84.4291 113.838Z" fill="#E0E0E0"/>
<path d="M86.9392 119.069C87.0092 119.199 74.7792 125.209 59.6492 132.499C44.5192 139.789 32.1892 145.589 32.1192 145.499C32.0492 145.409 44.2792 139.359 59.4192 132.069C74.5592 124.779 86.8792 118.939 86.9392 119.069Z" fill="#E0E0E0"/>
<path d="M89.4591 124.298C89.5191 124.428 77.2991 130.438 62.1591 137.728C47.0191 145.018 34.6991 150.808 34.6391 150.728C34.5791 150.648 46.7991 144.588 61.9391 137.308C77.0791 130.028 89.3991 124.168 89.4591 124.298Z" fill="#E0E0E0"/>
<path d="M91.9792 129.518C92.0392 129.648 79.8192 135.668 64.6792 142.948C49.5392 150.228 37.2192 156.038 37.1592 155.948C37.0992 155.858 49.3492 149.768 64.4492 142.478C79.5492 135.188 91.9092 129.398 91.9792 129.518Z" fill="#E0E0E0"/>
<path d="M94.4892 134.748C94.5492 134.878 82.3292 140.888 67.1992 148.178C52.0692 155.468 39.7292 161.268 39.6692 161.178C39.6092 161.088 51.8292 155.038 66.9692 147.748C82.1092 140.458 94.4292 134.618 94.4892 134.748Z" fill="#E0E0E0"/>
<path d="M69.3492 152.658C69.0406 152.9 68.705 153.104 68.3492 153.268L65.4492 154.758C62.9892 155.988 59.5692 157.668 55.7892 159.488C52.0092 161.308 48.5592 162.938 46.0592 164.088L43.0592 165.428C42.7046 165.614 42.3284 165.755 41.9392 165.848C42.2527 165.614 42.5875 165.41 42.9392 165.238L45.8392 163.758C48.2992 162.518 51.7192 160.838 55.4992 159.018C59.2792 157.198 62.7292 155.578 65.2292 154.428L68.2292 153.088C68.5851 152.903 68.9608 152.759 69.3492 152.658Z" fill="#E0E0E0"/>
<path d="M77.9992 94.418C76.6597 95.3504 75.225 96.1382 73.7192 96.768C72.2908 97.5538 70.7822 98.1841 69.2192 98.648C70.5588 97.7155 71.9935 96.9278 73.4992 96.298C74.9277 95.5121 76.4363 94.8819 77.9992 94.418Z" fill="#E0E0E0"/>
<path d="M62.3491 170.068C60.1005 171.444 57.7619 172.667 55.3491 173.728C53.0113 174.948 50.5961 176.014 48.1191 176.918C50.3677 175.543 52.7064 174.32 55.1191 173.258C57.457 172.038 59.8721 170.973 62.3491 170.068Z" fill="#E0E0E0"/>
<path d="M65.1292 174.568C62.8403 175.961 60.4617 177.2 58.0092 178.278C55.6327 179.521 53.1775 180.607 50.6592 181.528C52.9505 180.137 55.3288 178.895 57.7792 177.808C60.1569 176.571 62.612 175.489 65.1292 174.568Z" fill="#E0E0E0"/>
<path d="M103.349 149.459C102.336 150.241 101.219 150.877 100.029 151.349C98.9133 151.983 97.7154 152.461 96.4692 152.769C97.4913 151.995 98.6109 151.36 99.7992 150.879C100.914 150.25 102.108 149.773 103.349 149.459Z" fill="#E0E0E0"/>
<path d="M105.619 153.618C104.597 154.392 103.478 155.027 102.289 155.508C101.174 156.137 99.9804 156.615 98.7393 156.928C99.7522 156.146 100.87 155.51 102.059 155.038C103.175 154.404 104.373 153.926 105.619 153.618Z" fill="#E0E0E0"/>
<path d="M60.8893 182.748C59.9089 183.503 58.8286 184.119 57.6793 184.578C56.601 185.191 55.4434 185.652 54.2393 185.948C55.2182 185.178 56.2983 184.545 57.4493 184.068C58.5296 183.472 59.6872 183.027 60.8893 182.748Z" fill="#E0E0E0"/>
<path d="M108.249 158.488C107.556 159.11 106.752 159.595 105.879 159.918C105.074 160.402 104.191 160.741 103.269 160.918C103.965 160.293 104.772 159.805 105.649 159.478C106.447 158.991 107.329 158.655 108.249 158.488Z" fill="#E0E0E0"/>
<path d="M59.2192 197.409C59.3053 197.33 59.3991 197.259 59.4992 197.199L60.3392 196.639L63.5692 194.569L75.1792 187.279L75.4092 187.129L75.5092 187.379C76.058 188.79 76.1039 190.348 75.6392 191.789C75.4034 192.571 74.9927 193.288 74.4383 193.888C73.8838 194.487 73.2002 194.953 72.4392 195.249C71.6251 195.577 70.7425 195.698 69.8701 195.602C68.9977 195.506 68.1626 195.196 67.4392 194.699C66.7158 194.139 66.1733 193.379 65.8799 192.513C65.5864 191.647 65.5549 190.713 65.7892 189.829C65.9693 189.15 66.3126 188.525 66.7892 188.009C66.906 187.879 67.0331 187.758 67.1692 187.649C67.3043 187.525 67.4558 187.421 67.6192 187.339C67.7274 187.283 67.8474 187.254 67.9692 187.254C68.0911 187.254 68.2111 187.283 68.3192 187.339C68.4896 187.456 68.6273 187.614 68.7192 187.799C69.3228 188.943 69.6644 190.207 69.7192 191.499C69.7952 192.742 69.6008 193.988 69.1492 195.149C68.7674 196.31 68.0113 197.313 66.9992 197.999C66.4859 198.305 65.8968 198.461 65.2992 198.448C64.7016 198.436 64.1195 198.256 63.6192 197.929C62.6876 197.343 61.9824 196.458 61.6192 195.419C61.1573 193.564 61.1573 191.624 61.6192 189.769L61.6792 189.389L61.9392 189.679C63.0003 190.887 63.6667 192.391 63.8492 193.989C63.9888 195.183 63.8729 196.393 63.5092 197.539C63.2769 198.251 62.9399 198.925 62.5092 199.539C62.3492 199.749 62.2192 199.889 62.1292 199.989C62.0392 200.089 61.9992 200.139 61.9892 200.129C62.5722 199.319 63.0213 198.421 63.3192 197.469C63.6334 196.347 63.7151 195.173 63.5592 194.019C63.3622 192.491 62.7027 191.061 61.6692 189.919L61.9892 189.829C61.5442 191.615 61.5442 193.483 61.9892 195.269C62.3248 196.208 62.9702 197.005 63.8192 197.529C64.2476 197.808 64.7459 197.961 65.257 197.97C65.7682 197.978 66.2715 197.843 66.7092 197.579C67.6218 196.942 68.3027 196.026 68.6492 194.969C69.0641 193.865 69.2413 192.686 69.1692 191.509C69.0966 190.293 68.755 189.107 68.1692 188.039C68.1259 187.931 68.0532 187.837 67.9592 187.769C67.9258 187.75 67.8879 187.739 67.8492 187.739C67.8106 187.739 67.7727 187.75 67.7392 187.769C67.493 187.91 67.2731 188.093 67.0892 188.309C66.6848 188.763 66.3965 189.309 66.2492 189.899C66.0408 190.684 66.0681 191.514 66.3277 192.284C66.5874 193.054 67.0678 193.73 67.7092 194.229C68.3567 194.667 69.1008 194.941 69.8776 195.028C70.6545 195.115 71.4409 195.013 72.1692 194.729C72.8621 194.461 73.4851 194.039 73.9909 193.495C74.4968 192.951 74.8724 192.299 75.0892 191.589C75.5317 190.256 75.5 188.811 74.9992 187.499L75.3292 187.609L63.6192 194.739L60.3192 196.739L59.4492 197.239C59.3789 197.304 59.3018 197.361 59.2192 197.409Z" fill="#E0E0E0"/>
<path d="M111.139 172.198C111.136 172.518 111.082 172.836 110.979 173.138C110.878 173.512 110.723 173.869 110.519 174.198C110.24 174.674 109.795 175.03 109.269 175.198C108.945 175.309 108.593 175.309 108.269 175.198C107.936 175.061 107.646 174.837 107.429 174.548C107.019 173.937 106.645 173.303 106.309 172.648L103.859 168.068L104.309 167.968C104.229 170.258 104.149 172.758 104.049 175.378C104.049 176.008 104.049 176.618 103.979 177.228V178.228L103.529 177.298C102.159 174.488 100.889 171.858 99.7692 169.578H100.189C99.5462 171.857 99.2099 174.211 99.1892 176.578C99.1892 178.288 99.2992 179.258 99.2492 179.268C99.1631 179.044 99.1125 178.808 99.0992 178.568C99.0087 177.905 98.952 177.237 98.9292 176.568C98.8404 174.18 99.1032 171.791 99.7092 169.478L99.8592 168.898L100.119 169.438L103.949 177.128L103.449 177.228C103.449 176.628 103.449 176.008 103.519 175.378C103.629 172.758 103.729 170.258 103.819 167.968V167.068L104.229 167.858C105.109 169.508 105.919 171.048 106.649 172.428C106.965 173.077 107.315 173.708 107.699 174.318C107.846 174.56 108.065 174.749 108.325 174.859C108.586 174.968 108.874 174.993 109.149 174.928C109.546 174.789 109.903 174.553 110.187 174.242C110.471 173.932 110.675 173.556 110.779 173.148C110.878 172.824 110.998 172.507 111.139 172.198Z" fill="#E0E0E0"/>
<path d="M111.039 168.459C111.119 168.569 106.989 171.519 101.819 175.039C96.6493 178.559 92.3893 181.309 92.3093 181.189C92.2293 181.069 96.3092 178.129 101.529 174.609C106.749 171.089 110.959 168.339 111.039 168.459Z" fill="#E0E0E0"/>
<path d="M116.109 169.328C113.976 171.507 111.719 173.561 109.349 175.478C107.095 177.533 104.724 179.456 102.249 181.238C104.385 179.062 106.642 177.009 109.009 175.088C111.263 173.034 113.634 171.111 116.109 169.328Z" fill="#E0E0E0"/>
<path d="M298.51 46.2318H294.3L285.17 33.4018V25.0018C285.17 25.0018 278.66 24.6018 279.43 35.6018C280.2 46.6018 279.37 43.7918 279.37 43.7918C279.37 43.7918 265.56 43.8518 264.37 45.0518C263.53 45.9218 263.16 59.6418 263.01 67.0518C262.921 68.8467 263.435 70.6197 264.47 72.0891C265.504 73.5585 267 74.6401 268.72 75.1618C269.191 75.3029 269.678 75.3835 270.17 75.4018C273.61 75.4018 291.17 72.6018 291.17 72.6018H298.44L298.51 46.2318Z" fill="#F5F5F5"/>
<path d="M310.56 43.9219L307.97 72.7019H300.76V44.5019L310.56 43.9219Z" fill="#F5F5F5"/>
</svg>
