<svg width="50" height="50" viewBox="0 0 50 50" fill="none" xmlns="http://www.w3.org/2000/svg">
<path fill-rule="evenodd" clip-rule="evenodd" d="M15.3812 23.5313L19.075 27.2251C19.2132 27.3538 19.324 27.5091 19.4008 27.6816C19.4777 27.8541 19.519 28.0403 19.5224 28.2291C19.5257 28.4179 19.491 28.6055 19.4202 28.7806C19.3495 28.9557 19.2442 29.1147 19.1107 29.2483C18.9772 29.3818 18.8181 29.4871 18.643 29.5578C18.4679 29.6285 18.2803 29.6633 18.0915 29.6599C17.9027 29.6566 17.7165 29.6153 17.544 29.5384C17.3715 29.4616 17.2162 29.3507 17.0875 29.2126L10.9937 23.1188L10 22.1251L10.9937 21.1313L17.0875 15.0376C17.3541 14.7892 17.7067 14.6539 18.071 14.6604C18.4353 14.6668 18.7829 14.8144 19.0405 15.072C19.2982 15.3297 19.4458 15.6773 19.4522 16.0416C19.4586 16.4059 19.3234 16.7585 19.075 17.0251L15.3812 20.7188H33.9062C35.5224 20.7188 37.0724 21.3608 38.2152 22.5036C39.358 23.6464 40 25.1964 40 26.8126C40 28.4287 39.358 29.9787 38.2152 31.1215C37.0724 32.2643 35.5224 32.9063 33.9062 32.9063H30.1562C29.7833 32.9063 29.4256 32.7582 29.1619 32.4944C28.8982 32.2307 28.75 31.873 28.75 31.5001C28.75 31.1271 28.8982 30.7694 29.1619 30.5057C29.4256 30.242 29.7833 30.0938 30.1562 30.0938H33.9062C34.7765 30.0938 35.6111 29.7481 36.2264 29.1328C36.8418 28.5174 37.1875 27.6828 37.1875 26.8126C37.1875 25.9423 36.8418 25.1077 36.2264 24.4924C35.6111 23.877 34.7765 23.5313 33.9062 23.5313H15.3812Z" fill="#0694A2"/>
<rect x="1.5" y="1.5" width="47" height="47" rx="3.5" stroke="#0694A2" stroke-width="3"/>
</svg>
