<svg width="23" height="18" viewBox="0 0 23 18" fill="none" xmlns="http://www.w3.org/2000/svg">
<path d="M1.02797 1.16291C1.44492 0.853801 1.94769 0.686685 2.4642 0.685547H20.5356C21.041 0.685919 21.5336 0.845221 21.9462 1.14149L12.1806 7.65593C11.9789 7.79048 11.7429 7.8625 11.5014 7.86288C11.2601 7.86306 11.0238 7.79197 10.8217 7.65798L1.02797 1.16291ZM13.0828 9.04942C12.6138 9.36244 12.065 9.52974 11.5037 9.53069C10.9425 9.53144 10.3931 9.366 9.92338 9.05428L0.0953419 2.53602C0.0350162 2.7478 0.00292898 2.96666 0 3.18699V14.8591C0.000733418 15.5221 0.260548 16.158 0.722622 16.6268C1.18449 17.0958 1.81104 17.3595 2.46429 17.3602H20.5357C21.189 17.3595 21.8155 17.0958 22.2774 16.6268C22.7394 16.158 22.9993 15.5221 23 14.8591V3.18699C22.9967 2.9553 22.9613 2.7251 22.8948 2.50325L13.0828 9.04942Z" fill="#646060"/>
</svg>
