<svg width="26" height="17" viewBox="0 0 26 17" fill="none" xmlns="http://www.w3.org/2000/svg">
<path d="M25.9327 11.7077C25.3241 10.1586 24.445 8.73179 23.3367 7.49434L24.5873 6.23632H24.5875C24.916 5.90594 25.0442 5.42451 24.924 4.97326C24.8037 4.52202 24.4532 4.16952 24.0047 4.04845C23.5561 3.9276 23.0774 4.05655 22.749 4.38694L21.4381 5.7056C19.368 4.13472 16.886 3.20727 14.2981 3.03778V1.65886C14.2981 1.19165 14.0504 0.759895 13.6482 0.526283C13.246 0.292671 12.7502 0.292671 12.3479 0.526283C11.9457 0.759895 11.698 1.19164 11.698 1.65886V3.03778C9.1101 3.20724 6.62817 4.13466 4.55806 5.7056L3.24714 4.38694C2.9187 4.05655 2.44009 3.9276 1.99149 4.04867C1.5429 4.16952 1.19247 4.52202 1.07233 4.97325C0.951967 5.42449 1.08017 5.90596 1.40861 6.23632L2.65925 7.49434H2.65947C1.55114 8.73178 0.672048 10.1586 0.0634747 11.7076C-0.078873 12.149 0.0219029 12.6336 0.328579 12.9804C0.635039 13.3272 1.10147 13.4846 1.55397 13.3939C2.00648 13.3033 2.37735 12.9782 2.52862 12.5399C3.34241 10.4321 4.78679 8.63089 6.66237 7.38464C8.53769 6.13822 10.7517 5.50851 12.9983 5.58233C15.2441 5.50833 17.4572 6.13756 19.3325 7.3829C21.2074 8.62848 22.652 10.4286 23.4663 12.5353C23.6132 12.9786 23.9841 13.3092 24.4392 13.4029C24.8943 13.4964 25.3647 13.3388 25.6727 12.9891C25.9809 12.6395 26.0801 12.151 25.9332 11.7077H25.9327ZM12.9978 8.19804C11.9634 8.19804 10.9713 8.6114 10.2399 9.34726C9.50839 10.0829 9.09745 11.0809 9.09745 12.1215C9.09745 13.1621 9.50839 14.16 10.2399 14.8957C10.9713 15.6315 11.9634 16.0449 12.9978 16.0449C14.0323 16.0449 15.0244 15.6315 15.7558 14.8957C16.4873 14.16 16.8982 13.1621 16.8982 12.1215C16.8972 11.0812 16.4858 10.084 15.7547 9.34833C15.0234 8.61291 14.032 8.1991 12.9978 8.19804ZM12.9978 13.4292C12.6531 13.4292 12.3222 13.2915 12.0785 13.0463C11.8347 12.8011 11.6978 12.4683 11.6978 12.1215C11.6978 11.7746 11.8347 11.4419 12.0785 11.1967C12.3222 10.9514 12.6531 10.8137 12.9978 10.8137C13.3426 10.8137 13.6735 10.9514 13.9172 11.1967C14.161 11.4419 14.2979 11.7746 14.2979 12.1215C14.2975 12.4683 14.1603 12.8006 13.9168 13.0458C13.673 13.2908 13.3426 13.4287 12.9979 13.4292L12.9978 13.4292Z" fill="#646060"/>
</svg>
