<?xml version="1.0" encoding="iso-8859-1"?>
<!-- Uploaded to: SVG Repo, www.svgrepo.com, Generator: SVG Repo Mixer Tools -->
<svg height="800px" width="800px" version="1.1" id="Layer_1" xmlns="http://www.w3.org/2000/svg" xmlns:xlink="http://www.w3.org/1999/xlink" 
	 viewBox="0 0 504.131 504.131" xml:space="preserve">
<circle style="fill:#99A8C1;" cx="252.065" cy="252.069" r="252.062"/>
<path style="fill:#70869B;" d="M73.834,73.823c98.43-98.43,258.032-98.43,356.462,0c98.43,98.446,98.446,258.032,0,356.478"/>
<path style="fill:#1D2321;" d="M408.265,333.871v-81.14c0-8.263-6.695-14.95-14.966-14.95h-4.632L366.1,148.456l-12.619-9.83
	h-38.936c5.404-2.938,9.114-8.602,9.114-15.187v-14.092c0-9.586-7.775-17.353-17.361-17.353H197.833
	c-9.586,0-17.353,7.767-17.353,17.353v14.092c0,6.585,3.71,12.249,9.121,15.187H150.65l-12.619,9.83l-22.567,89.324h-4.632
	c-8.263,0-14.966,6.695-14.966,14.95v81.14c-5.986,0-10.847,4.86-10.847,10.847c0,6.002,4.86,10.846,10.847,10.846h3.797v39.889
	c0,9.216,7.475,16.691,16.691,16.691h20.858c9.208,0,16.675-7.475,16.675-16.691v-39.889h196.34v39.889
	c0,9.216,7.475,16.691,16.691,16.691h20.842c9.216,0,16.691-7.475,16.691-16.691v-39.889h3.797c5.986,0,10.846-4.844,10.846-10.846
	C419.111,338.731,414.251,333.871,408.265,333.871z M160.788,164.667h182.563l18.471,73.106H142.308L160.788,164.667z"/>
<path style="fill:#363D3B;" d="M408.265,333.871v-81.14c0-8.263-6.695-14.95-14.966-14.95h-4.632L366.1,148.456l-12.619-9.83
	h-38.936c5.404-2.938,9.114-8.602,9.114-15.187v-14.092c0-9.586-7.775-17.353-17.361-17.353H197.833
	c-9.586,0-17.353,7.767-17.353,17.353v14.092c0,6.585,3.71,12.249,9.121,15.187H150.65l-6.751,5.262l20.771,20.787h178.688
	l18.471,73.106H237.777l164.951,164.951c1.079-2.198,1.741-4.663,1.741-7.278v-39.889h3.797c5.986,0,10.847-4.844,10.847-10.846
	C419.111,338.731,414.251,333.871,408.265,333.871z"/>
<g>
	<circle style="fill:#99A8C1;" cx="144.144" cy="288.855" r="23.324"/>
	<circle style="fill:#99A8C1;" cx="359.979" cy="288.855" r="23.316"/>
</g>
</svg>