<svg width="28" height="28" viewBox="0 0 28 28" fill="none" xmlns="http://www.w3.org/2000/svg">
<path d="M16.6133 6.39333L14 0L11.3867 6.39333C12.2267 6.25333 13.1133 6.16 14 6.16C14.8867 6.16 15.7733 6.25333 16.6133 6.39333ZM11.3867 21.6067L14 28L16.6133 21.6067C15.7733 21.7467 14.8867 21.84 14 21.84C13.1133 21.84 12.2267 21.7467 11.3867 21.6067ZM21.6067 16.6133L28 14L21.6067 11.3867C21.7467 12.2267 21.84 13.1133 21.84 14C21.84 14.8867 21.7467 15.7733 21.6067 16.6133ZM6.39333 11.3867L0 14L6.39333 16.6133C6.25333 15.7733 6.16 14.8867 6.16 14C6.16 13.1133 6.25333 12.2267 6.39333 11.3867ZM21.2333 10.4533L23.8933 4.10667L17.5467 6.76667C18.2467 7.28 18.9467 7.79333 19.5533 8.44667C20.2067 9.1 20.72 9.75333 21.2333 10.4533ZM6.76667 17.5467L4.10667 23.8933L10.4533 21.2333C9.75333 20.72 9.05333 20.2067 8.44667 19.5533C7.79333 18.9 7.28 18.2467 6.76667 17.5467ZM17.5467 21.2333L23.8933 23.8933L21.2333 17.5467C20.72 18.2467 20.2067 18.9467 19.5533 19.5533C18.9 20.2067 18.2467 20.72 17.5467 21.2333ZM10.4533 6.76667L4.10667 4.10667L6.76667 10.4533C7.28 9.75333 7.79333 9.05333 8.44667 8.44667C9.1 7.79333 9.75333 7.28 10.4533 6.76667Z" fill="#FFD448"/>
</svg>
