<svg width="22" height="22" viewBox="0 0 22 22" fill="none" xmlns="http://www.w3.org/2000/svg">
<path d="M8.35624 3.1278e-08C7.0213 0.000144578 5.70582 0.32008 4.51992 0.933022C3.33402 1.54597 2.31221 2.43408 1.54003 3.52302C0.767843 4.61196 0.267757 5.87004 0.0816308 7.19193C-0.104495 8.51383 0.0287557 9.86108 0.470229 11.1209C0.911702 12.3807 1.64855 13.5165 2.61909 14.433C3.58963 15.3496 4.76562 16.0204 6.04862 16.3891C7.33161 16.7579 8.68428 16.8139 9.99338 16.5525C11.3025 16.2912 12.5299 15.72 13.573 14.8869L19.7712 21.0851C19.9463 21.2542 20.1809 21.3478 20.4243 21.3457C20.6678 21.3436 20.9007 21.2459 21.0729 21.0738C21.245 20.9016 21.3427 20.6687 21.3448 20.4252C21.3469 20.1818 21.2533 19.9472 21.0842 19.7721L14.886 13.5739C15.8684 12.3443 16.4836 10.8623 16.6609 9.2985C16.8382 7.73468 16.5703 6.15259 15.888 4.73432C15.2058 3.31605 14.1369 2.11926 12.8044 1.2817C11.472 0.444143 9.93008 -0.000136108 8.35624 3.1278e-08ZM1.85624 8.35714C1.85624 6.63324 2.54106 4.97994 3.76004 3.76095C4.97903 2.54196 6.63233 1.85714 8.35624 1.85714C10.0801 1.85714 11.7334 2.54196 12.9524 3.76095C14.1714 4.97994 14.8562 6.63324 14.8562 8.35714C14.8562 10.081 14.1714 11.7344 12.9524 12.9533C11.7334 14.1723 10.0801 14.8571 8.35624 14.8571C6.63233 14.8571 4.97903 14.1723 3.76004 12.9533C2.54106 11.7344 1.85624 10.081 1.85624 8.35714Z" fill="white"/>
</svg>
